<?xml version="1.0" encoding="UTF-8"?>
<svg version="1.1" xmlns="http://www.w3.org/2000/svg" width="1344" height="768">
<path d="M0 0 C443.52 0 887.04 0 1344 0 C1344 253.44 1344 506.88 1344 768 C900.48 768 456.96 768 0 768 C0 514.56 0 261.12 0 0 Z " fill="#FEFEFE" transform="translate(0,0)"/>
<path d="M0 0 C1.85086094 -0.00136021 3.70172161 -0.00314357 5.55258179 -0.00531006 C10.51833775 -0.00981499 15.4840726 -0.00812269 20.44982886 -0.00493097 C25.70205214 -0.00236611 30.95427383 -0.00475669 36.20649719 -0.00631714 C45.03464068 -0.00812902 53.86277576 -0.00576057 62.69091797 -0.00097656 C72.80515653 0.00444214 82.91937485 0.00271687 93.03361291 -0.00280297 C101.79624465 -0.00738871 110.55887042 -0.00795768 119.32150298 -0.0053643 C124.51959774 -0.00382833 129.7176831 -0.00353159 134.91577721 -0.00690079 C164.40623212 -0.02341391 193.84700698 0.30208493 223.29977417 1.94561768 C227.27403832 2.16731201 231.24902433 2.37559577 235.22387695 2.58642578 C236.04705917 2.63043518 236.87024139 2.67444458 237.71836853 2.7197876 C248.13479653 3.27376413 258.55434956 3.76287063 268.97387695 4.25439453 C270.84423844 4.34285147 272.71459977 4.43131167 274.58496094 4.51977539 C278.90206456 4.72373206 283.21920738 4.92683894 287.53637695 5.12939453 C287.53637695 5.78939453 287.53637695 6.44939453 287.53637695 7.12939453 C288.62305664 7.10619141 289.70973633 7.08298828 290.8293457 7.05908203 C303.28153194 6.8883591 315.66891786 7.39692372 328.09887695 8.06689453 C328.92954681 8.11046082 329.76021667 8.1540271 330.61605835 8.19891357 C333.0077717 8.32572652 335.39904966 8.45870515 337.7902832 8.59423828 C338.51243011 8.63283463 339.23457703 8.67143097 339.97860718 8.7111969 C345.07841182 9.01381689 345.07841182 9.01381689 347.51757812 9.62939453 C350.81901996 10.44706932 354.19839042 10.48922163 357.58325195 10.66455078 C358.35445374 10.70752792 359.12565552 10.75050507 359.92022705 10.79478455 C362.3754272 10.93077505 364.83087887 11.06140564 367.28637695 11.19189453 C368.95436513 11.2833377 370.62233418 11.37513056 372.2902832 11.46728516 C376.37210382 11.69204167 380.45415828 11.91199265 384.53637695 12.12939453 C384.53637695 12.78939453 384.53637695 13.44939453 384.53637695 14.12939453 C385.41841797 14.10184082 386.30045898 14.07428711 387.20922852 14.04589844 C401.30964379 13.81511389 415.25699561 15.0992565 429.29333496 16.33062744 C432.5926076 16.61828069 435.89266614 16.89663955 439.19262695 17.17626953 C453.64891406 18.40816245 468.09658351 19.71737047 482.53637695 21.12939453 C482.53637695 21.78939453 482.53637695 22.44939453 482.53637695 23.12939453 C483.14327866 23.11965103 483.75018036 23.10990753 484.37547302 23.09986877 C490.45426277 23.04494248 496.40054394 23.36355837 502.4465332 23.96923828 C503.3400499 24.05565079 504.23356659 24.14206329 505.15415955 24.23109436 C507.02064773 24.41285049 508.88690521 24.59699061 510.75292969 24.78344727 C513.62216043 25.06921349 516.4922441 25.34488264 519.36254883 25.61962891 C521.18226887 25.7980689 523.00193263 25.97708408 524.8215332 26.15673828 C526.11197289 26.28023903 526.11197289 26.28023903 527.42848206 26.40623474 C533.42129705 27.01431463 533.42129705 27.01431463 534.53637695 28.12939453 C536.09226631 28.36400527 537.65740159 28.53774883 539.22387695 28.68603516 C540.22161133 28.78283569 541.2193457 28.87963623 542.24731445 28.97937012 C543.87540039 29.13097595 543.87540039 29.13097595 545.53637695 29.28564453 C546.64239258 29.39283813 547.7484082 29.50003174 548.88793945 29.61047363 C552.43702675 29.95434154 555.98661832 30.29253164 559.53637695 30.62939453 C564.20354327 31.07229652 568.87010814 31.52089579 573.53637695 31.97314453 C575.16446289 32.12475037 575.16446289 32.12475037 576.82543945 32.27941895 C577.82317383 32.37621948 578.8209082 32.47302002 579.84887695 32.57275391 C581.17338867 32.69813538 581.17338867 32.69813538 582.5246582 32.8260498 C584.53637695 33.12939453 584.53637695 33.12939453 585.53637695 34.12939453 C586.96944906 34.36312938 588.41231494 34.53734111 589.85668945 34.68603516 C590.77434082 34.78283569 591.69199219 34.87963623 592.63745117 34.97937012 C594.13429443 35.13097595 594.13429443 35.13097595 595.66137695 35.28564453 C596.6786084 35.39283813 597.69583984 35.50003174 598.74389648 35.61047363 C602.00763507 35.95429515 605.27191634 36.29250143 608.53637695 36.62939453 C612.82858084 37.07235098 617.12013834 37.52094328 621.41137695 37.97314453 C622.90822021 38.12475037 622.90822021 38.12475037 624.43530273 38.27941895 C625.3529541 38.37621948 626.27060547 38.47302002 627.21606445 38.57275391 C628.0280127 38.65634155 628.83996094 38.7399292 629.67651367 38.8260498 C631.53637695 39.12939453 631.53637695 39.12939453 632.53637695 40.12939453 C635.25651415 40.49126857 637.962954 40.79701588 640.69262695 41.06689453 C641.51009399 41.15189209 642.32756104 41.23688965 643.1697998 41.32446289 C645.79158039 41.59696292 648.41388452 41.86383781 651.03637695 42.12939453 C654.48482877 42.47858888 657.93262737 42.83343476 661.38012695 43.19189453 C662.18115845 43.27109131 662.98218994 43.35028809 663.80749512 43.43188477 C669.42357514 44.01659272 669.42357514 44.01659272 670.53637695 45.12939453 C672.08254721 45.34409898 673.63698895 45.50004675 675.19262695 45.62939453 C676.13235352 45.71189453 677.07208008 45.79439453 678.0402832 45.87939453 C679.02899414 45.96189453 680.01770508 46.04439453 681.03637695 46.12939453 C682.98464005 46.29196147 684.93258395 46.45841682 686.88012695 46.62939453 C687.74831055 46.70158203 688.61649414 46.77376953 689.51098633 46.84814453 C691.53637695 47.12939453 691.53637695 47.12939453 692.53637695 48.12939453 C693.87439881 48.35452554 695.22210719 48.5230026 696.5715332 48.66455078 C697.38041992 48.7515625 698.18930664 48.83857422 699.02270508 48.92822266 C699.8728418 49.01523437 700.72297852 49.10224609 701.59887695 49.19189453 C702.45288086 49.28277344 703.30688477 49.37365234 704.18676758 49.46728516 C706.3028923 49.69190175 708.4195859 49.9111468 710.53637695 50.12939453 C710.53637695 50.78939453 710.53637695 51.44939453 710.53637695 52.12939453 C707.55715102 52.1562344 704.57816401 52.1761549 701.59887695 52.19189453 C700.32367187 52.20446289 700.32367187 52.20446289 699.02270508 52.21728516 C698.21381836 52.22050781 697.40493164 52.22373047 696.5715332 52.22705078 C695.82266846 52.2322876 695.07380371 52.23752441 694.30224609 52.24291992 C692.53637695 52.12939453 692.53637695 52.12939453 691.53637695 51.12939453 C690.04586427 51.03151189 688.55072991 51.00307671 687.05700684 51.00241089 C686.08944962 50.99959106 685.1218924 50.99677124 684.12501526 50.99386597 C682.51976234 50.99690231 682.51976234 50.99690231 680.88208008 51 C679.20177956 50.99737152 679.20177956 50.99737152 677.48753357 50.99468994 C673.76421586 50.99026876 670.04094519 50.99321036 666.31762695 50.99658203 C663.74312328 50.99590907 661.16861967 50.99493911 658.59411621 50.99368286 C653.1902602 50.99220553 647.78642206 50.994267 642.38256836 50.99902344 C636.12676223 51.00446603 629.87098869 51.00270336 623.61518335 50.99719703 C617.60786645 50.99212019 611.60056556 50.99264745 605.59324646 50.99557877 C603.03185522 50.9962483 600.47046315 50.9954187 597.90907288 50.99309921 C594.33625042 50.99057426 590.76349152 50.99441107 587.19067383 51 C586.12050522 50.99797577 585.05033661 50.99595154 583.94773865 50.99386597 C582.98018143 50.99668579 582.01262421 50.99950562 581.01574707 51.00241089 C579.74700367 51.00297643 579.74700367 51.00297643 578.45262909 51.00355339 C576.52750022 50.91852102 576.52750022 50.91852102 575.53637695 52.12939453 C573.5251611 52.26758677 571.50916091 52.33634393 569.49365234 52.37890625 C567.52739143 52.42450432 567.52739143 52.42450432 565.52140808 52.47102356 C564.80979208 52.48527689 564.09817608 52.49953022 563.36499596 52.51421547 C561.09833403 52.55979997 558.83187901 52.61138935 556.56538391 52.66459656 C553.29190074 52.7410819 550.01838009 52.81545419 546.74481201 52.88821411 C518.78522672 53.51429658 490.8472553 54.37647205 462.91137695 55.69189453 C462.22376911 55.72408836 461.53616127 55.7562822 460.82771683 55.7894516 C452.77675516 56.16665236 444.72666809 56.55929511 436.67736816 56.97052002 C433.70383863 57.12092415 430.73004736 57.2643156 427.75610352 57.40625 C426.09169947 57.48942614 424.42731009 57.57289631 422.76293945 57.65673828 C421.6558815 57.70744225 421.6558815 57.70744225 420.52645874 57.75917053 C417.24569555 57.66985986 417.24569555 57.66985986 414.53637695 59.12939453 C411.85166806 59.36260586 409.18766153 59.53425096 406.49731445 59.66455078 C405.67196198 59.70761856 404.8466095 59.75068634 403.99624634 59.7950592 C401.30154561 59.93313783 398.60653648 60.06310278 395.91137695 60.19189453 C395.00387695 60.23674988 394.09637695 60.28160522 393.16137695 60.32781982 C379.27472736 61.0098856 365.44139849 61.399104 351.53637695 61.12939453 C351.53637695 61.78939453 351.53637695 62.44939453 351.53637695 63.12939453 C350.94298523 63.16840378 350.34959351 63.20741302 349.73822021 63.24760437 C320.4678921 65.17664469 291.21273376 67.23237654 261.97871399 69.65152359 C259.96910975 69.81728776 257.95936808 69.98128696 255.94958496 70.14486694 C252.20593289 70.45100128 248.46288284 70.76357608 244.7199707 71.07861328 C243.59668869 71.17013672 242.47340668 71.26166016 241.31608582 71.35595703 C240.30008804 71.44321045 239.28409027 71.53046387 238.23730469 71.62036133 C237.34857162 71.69490036 236.45983856 71.76943939 235.54417419 71.84623718 C233.54194694 71.92334695 233.54194694 71.92334695 232.53637695 73.12939453 C223.90806881 74.22828283 215.21929534 74.25729349 206.53637695 74.12939453 C206.53637695 74.78939453 206.53637695 75.44939453 206.53637695 76.12939453 C205.86208145 76.1898143 205.18778595 76.25023407 204.49305725 76.31248474 C197.50155051 76.93983656 190.51062871 77.57341935 183.52001953 78.21069336 C180.907861 78.44798489 178.29555553 78.68366446 175.68310547 78.91772461 C171.93718688 79.25361456 168.19182771 79.59521848 164.4465332 79.93798828 C163.27051041 80.04219589 162.09448761 80.1464035 160.88282776 80.25376892 C159.80178268 80.35379715 158.72073761 80.45382538 157.60693359 80.55688477 C156.17130821 80.68679054 156.17130821 80.68679054 154.7066803 80.81932068 C152.56141403 80.90436113 152.56141403 80.90436113 151.53637695 82.12939453 C148.98282772 82.50416633 146.44455961 82.82204759 143.88012695 83.10205078 C143.10382935 83.18942001 142.32753174 83.27678925 141.52770996 83.36680603 C139.87687024 83.55132734 138.22577749 83.73359631 136.57446289 83.91381836 C134.07396497 84.18777634 131.57472055 84.47152859 129.07543945 84.75634766 C127.4687351 84.93468205 125.86196598 85.11243395 124.25512695 85.28955078 C123.51725952 85.37390884 122.77939209 85.45826691 122.01916504 85.54518127 C116.83289288 86.1012228 111.75258636 86.198622 106.53637695 86.12939453 C106.53637695 86.78939453 106.53637695 87.44939453 106.53637695 88.12939453 C104.84279053 88.34088135 104.84279053 88.34088135 103.11499023 88.55664062 C98.88388978 89.0859907 94.65341187 89.62018317 90.4230957 90.15576172 C88.60001715 90.38590282 86.77677728 90.61477011 84.95336914 90.84228516 C72.33910862 92.37372376 72.33910862 92.37372376 59.84594727 94.65576172 C54.88549551 95.67302138 49.8566342 96.32638066 44.84887695 97.06689453 C36.37412892 98.34160277 27.968423 99.71941101 19.5871582 101.51611328 C17.30762362 101.97435519 15.00840418 102.33655088 12.7043457 102.64892578 C9.68095783 102.78711985 9.68095783 102.78711985 8.53637695 104.12939453 C7.06506523 104.41325366 5.58324013 104.64320515 4.09887695 104.84814453 C2.75696289 105.03957031 2.75696289 105.03957031 1.38793945 105.23486328 C-0.51310221 105.49788411 -2.41414388 105.76090495 -4.31518555 106.02392578 C-5.65709961 106.21535156 -5.65709961 106.21535156 -7.02612305 106.41064453 C-7.85241211 106.52472656 -8.67870117 106.63880859 -9.5300293 106.75634766 C-11.46297903 106.94196658 -11.46297903 106.94196658 -12.46362305 108.12939453 C-13.84827567 108.42653594 -15.24445571 108.67029426 -16.64331055 108.89111328 C-17.53985352 109.03758301 -18.43639648 109.18405273 -19.36010742 109.33496094 C-20.34301758 109.49399902 -21.32592773 109.65303711 -22.33862305 109.81689453 C-31.60938336 111.36940713 -40.79011748 113.20475408 -49.96362305 115.25439453 C-51.1017041 115.50793701 -52.23978516 115.76147949 -53.41235352 116.02270508 C-57.59783567 116.96923527 -61.75082347 117.9248853 -65.87670898 119.10864258 C-69.44558871 120.12426238 -73.01989535 120.99562557 -76.63549805 121.82861328 C-78.02307065 122.1502993 -79.4106015 122.47216546 -80.7980957 122.79418945 C-81.87840057 123.04415176 -81.87840057 123.04415176 -82.98052979 123.29916382 C-103.62023249 128.08436835 -124.25700644 132.93362397 -144.4206543 139.48046875 C-149.38317815 141.05675799 -154.38471035 142.50986584 -159.37744141 143.98706055 C-164.77846755 145.59431871 -170.12964693 147.31245584 -175.46362305 149.12939453 C-176.49253662 149.47953613 -177.5214502 149.82967773 -178.58154297 150.19042969 C-190.82357798 154.36995802 -203.06710948 158.5534204 -215.21362305 163.00439453 C-215.93146973 163.26575195 -216.64931641 163.52710938 -217.38891602 163.79638672 C-221.81829058 165.43705142 -226.11833769 167.29071324 -230.42358398 169.23242188 C-232.81571825 170.28420518 -235.23910482 171.16625126 -237.71362305 172.00439453 C-242.90647906 173.85744689 -247.84847633 176.08618095 -252.83081055 178.44189453 C-255.41988906 179.65960866 -258.02908119 180.81498463 -260.65893555 181.94189453 C-270.98752166 186.38270954 -280.76963489 191.44149831 -290.52319336 197.02783203 C-293.08385498 198.48149399 -295.67812673 199.86879649 -298.27612305 201.25439453 C-308.70721102 206.93247912 -318.67389332 213.41679151 -328.46362305 220.12939453 C-329.26920654 220.68167725 -329.26920654 220.68167725 -330.09106445 221.24511719 C-346.00964786 232.22136831 -362.7091821 244.44906539 -375.15112305 259.37939453 C-375.91424805 260.28689453 -376.67737305 261.19439453 -377.46362305 262.12939453 C-378.12362305 262.12939453 -378.78362305 262.12939453 -379.46362305 262.12939453 C-379.70725586 262.68369141 -379.95088867 263.23798828 -380.2019043 263.80908203 C-381.72338331 266.60709607 -383.59266029 268.82392043 -385.65112305 271.25439453 C-397.24312663 285.26833187 -406.19650633 300.08688037 -412.46362305 317.12939453 C-412.78073242 317.87576172 -413.0978418 318.62212891 -413.42456055 319.39111328 C-415.62523427 324.58775371 -416.30395158 329.89190463 -417.03393555 335.46923828 C-417.46362305 338.12939453 -417.46362305 338.12939453 -418.46362305 339.12939453 C-419.68084203 347.90539316 -419.6183723 356.90987013 -419.71362305 365.75439453 C-419.74564819 367.30803711 -419.74564819 367.30803711 -419.77832031 368.89306641 C-419.82521223 379.67650159 -417.5121592 389.14695269 -412.40112305 398.62939453 C-412.04985352 399.30486328 -411.69858398 399.98033203 -411.33666992 400.67626953 C-410.38783286 402.49861066 -409.42633508 404.31434509 -408.46362305 406.12939453 C-407.79190751 407.46019146 -407.12208897 408.79199225 -406.46362305 410.12939453 C-410.43650038 408.73602928 -413.38417192 406.8805719 -416.71362305 404.31689453 C-417.75905273 403.51638672 -418.80448242 402.71587891 -419.8815918 401.89111328 C-420.73696533 401.23054932 -420.73696533 401.23054932 -421.60961914 400.55664062 C-423.61218182 399.01503128 -425.62488877 397.48737874 -427.6394043 395.96142578 C-439.01064637 387.33588848 -450.09214371 378.5379206 -460.5534668 368.82080078 C-463.20415724 366.36935687 -465.88811638 363.96311876 -468.58862305 361.56689453 C-476.3822926 354.56134887 -483.74872021 347.17692741 -490.46362305 339.12939453 C-490.9210791 338.58573242 -491.37853516 338.04207031 -491.84985352 337.48193359 C-503.51165827 323.57903099 -513.89902682 309.15540883 -522.46362305 293.12939453 C-522.82117676 292.46875 -523.17873047 291.80810547 -523.54711914 291.12744141 C-528.68282635 281.5707556 -532.61874912 273.20151805 -532.46362305 262.12939453 C-533.12362305 262.12939453 -533.78362305 262.12939453 -534.46362305 262.12939453 C-536.88179379 242.9999367 -536.14097273 224.44289105 -524.3581543 208.49267578 C-504.13692182 183.26825177 -470.07814303 166.97359232 -441.46362305 153.12939453 C-440.76591797 152.79020996 -440.06821289 152.45102539 -439.34936523 152.1015625 C-423.11157752 144.23418791 -406.51399869 137.986294 -389.46362305 132.12939453 C-387.50559501 131.45448358 -385.54777129 130.77898191 -383.58995056 130.10346985 C-380.04826537 128.88171346 -376.50602419 127.66157333 -372.96362305 126.44189453 C-372.28357208 126.20773834 -371.60352112 125.97358215 -370.90286255 125.73233032 C-364.27693627 123.45225129 -357.6483891 121.18357067 -350.99487305 118.98486328 C-347.13495016 117.70414558 -343.31840086 116.35340496 -339.51977539 114.90234375 C-307.57385485 102.89322662 -307.57385485 102.89322662 -291.46362305 100.12939453 C-291.46362305 99.46939453 -291.46362305 98.80939453 -291.46362305 98.12939453 C-292.22803711 98.10361328 -292.99245117 98.07783203 -293.7800293 98.05126953 C-299.87001016 97.72881567 -305.50716173 96.99664928 -311.38549805 95.34423828 C-312.70621981 94.97929723 -314.02727785 94.6155714 -315.34863281 94.25292969 C-316.02604523 94.0661969 -316.70345764 93.87946411 -317.40139771 93.68707275 C-320.78881011 92.77103022 -324.19433549 91.93015409 -327.6003418 91.08642578 C-346.15226503 86.4560431 -364.33165638 81.23004582 -382.46362305 75.12939453 C-384.71326439 74.38222006 -386.96326314 73.63612077 -389.21362305 72.89111328 C-394.131833 71.26047878 -399.04652862 69.61978551 -403.95800781 67.96899414 C-405.57453829 67.42731546 -407.19214315 66.88882757 -408.81103516 66.35424805 C-412.54074503 65.12259144 -416.25194786 63.85653507 -419.9440918 62.51611328 C-429.67365802 58.99243254 -439.41391395 55.97108749 -449.42089844 53.33813477 C-459.19346543 50.73508384 -469.51552701 47.94410611 -478.46362305 43.12939453 C-477.96862305 42.13939453 -477.96862305 42.13939453 -477.46362305 41.12939453 C-475.01893616 40.59190369 -475.01893616 40.59190369 -471.72558594 40.18383789 C-470.49663101 40.02705063 -469.26767609 39.87026337 -468.0014801 39.70872498 C-466.64644039 39.54533679 -465.2913727 39.38218054 -463.9362793 39.21923828 C-462.54909314 39.04589781 -461.16200407 38.87177879 -459.77500916 38.69691467 C-456.10880285 38.23699967 -452.44129472 37.78838745 -448.7734375 37.34185791 C-445.80684763 36.97888976 -442.84124055 36.60826184 -439.87566471 36.237113 C-414.72308788 33.08953315 -414.72308788 33.08953315 -406.23118591 32.38331604 C-404.44076364 32.30632625 -404.44076364 32.30632625 -403.46362305 31.12939453 C-401.44047558 30.83310903 -399.40820424 30.5989515 -397.37426758 30.38916016 C-396.06845734 30.25231812 -394.76264709 30.11547607 -393.41726685 29.9744873 C-391.97700106 29.82809501 -390.53672365 29.68181705 -389.09643555 29.53564453 C-387.62202219 29.38289349 -386.14764725 29.22977135 -384.67330933 29.07629395 C-380.77509952 28.67159814 -376.87634957 28.2723472 -372.97747803 27.87408447 C-369.82551708 27.55122974 -366.67395051 27.22462448 -363.52240181 26.89777374 C-325.76677929 22.98260029 -325.76677929 22.98260029 -319.27612305 23.06689453 C-318.35444336 23.07591797 -317.43276367 23.08494141 -316.4831543 23.09423828 C-315.81670898 23.10583984 -315.15026367 23.11744141 -314.46362305 23.12939453 C-314.46362305 22.46939453 -314.46362305 21.80939453 -314.46362305 21.12939453 C-313.61393448 21.05644669 -312.76424591 20.98349884 -311.8888092 20.90834045 C-303.89785805 20.22149365 -295.90729367 19.53034146 -287.9171381 18.83429813 C-283.80889353 18.47657269 -279.7005167 18.1205389 -275.59179688 17.76831055 C-271.62980769 17.42859927 -267.66821998 17.0845237 -263.70687675 16.73736382 C-262.19228132 16.60541321 -260.67754585 16.47506032 -259.16267586 16.34630013 C-257.04784086 16.16627474 -254.93356626 15.98067523 -252.81933594 15.79370117 C-251.61354385 15.68933243 -250.40775177 15.58496368 -249.16542053 15.47743225 C-246.55089322 15.42032171 -246.55089322 15.42032171 -245.46362305 14.12939453 C-243.50170425 13.89242709 -241.53196659 13.71996307 -239.5612793 13.57275391 C-238.29485596 13.47595337 -237.02843262 13.37915283 -235.72363281 13.27941895 C-234.32447263 13.17719413 -232.92530242 13.07510638 -231.52612305 12.97314453 C-230.08851453 12.86522905 -228.65093349 12.75694704 -227.21337891 12.64831543 C-224.18371267 12.42030936 -221.15384359 12.19530901 -218.1237793 11.97265625 C-214.29022537 11.69093657 -210.45706793 11.40423317 -206.6240387 11.11547089 C-202.92486947 10.83703597 -199.22550219 10.56127397 -195.52612305 10.28564453 C-194.50012497 10.20886726 -194.50012497 10.20886726 -193.45339966 10.13053894 C-187.21024174 9.66485684 -180.9689276 9.20246759 -174.71704102 8.87036133 C-173.54146889 8.80692661 -173.54146889 8.80692661 -172.34214783 8.74221039 C-170.82117858 8.66184478 -169.29998408 8.58561193 -167.77857971 8.51395416 C-164.32725559 8.62511485 -164.32725559 8.62511485 -161.46362305 7.12939453 C-159.49218292 6.91030337 -157.5134171 6.75679113 -155.53393555 6.62939453 C-153.64602295 6.50649048 -153.64602295 6.50649048 -151.7199707 6.38110352 C-150.34286972 6.29695626 -148.96575346 6.21305875 -147.58862305 6.12939453 C-146.1919735 6.04097235 -144.79532638 5.95251173 -143.39868164 5.86401367 C-132.79857596 5.20694842 -122.19833923 4.76089486 -111.58129883 4.47119141 C-110.52410645 4.43960937 -109.46691406 4.40802734 -108.37768555 4.37548828 C-106.98477295 4.33959595 -106.98477295 4.33959595 -105.5637207 4.30297852 C-103.47706471 4.35832161 -103.47706471 4.35832161 -102.46362305 3.12939453 C-100.60736438 2.98147047 -98.74565588 2.90150849 -96.88427734 2.84814453 C-95.68759933 2.81140625 -94.49092133 2.77466797 -93.25798035 2.73681641 C-91.94783463 2.70136719 -90.6376889 2.66591797 -89.2878418 2.62939453 C-87.92469375 2.58885706 -86.56156007 2.54783358 -85.19844055 2.50634766 C-81.58451329 2.39740851 -77.97045156 2.29391988 -74.35632324 2.19189453 C-68.6406214 2.02989955 -62.92513554 1.86065692 -57.20969582 1.68969727 C-55.2429394 1.6317543 -53.27609562 1.57680001 -51.30924988 1.52197266 C-45.07854039 1.33980554 -38.86028254 1.10547395 -32.63705045 0.75553405 C-21.75027739 0.15513203 -10.90110885 -0.01375883 0 0 Z " fill="#E93538" transform="translate(578.463623046875,319.87060546875)"/>
<path d="M0 0 C7.48924795 1.44350584 13.77745231 6.85811245 18 13 C21.07822933 20.69013476 21.64423868 30.07530179 18.375 37.8125 C17.62106235 39.22906797 16.82866939 40.62581157 16 42 C15.59910156 42.71285156 15.19820312 43.42570312 14.78515625 44.16015625 C8.31817382 54.78850129 -3.09253208 66.72589495 -14.953125 71.1328125 C-17.76682751 72.32487731 -20.34378159 73.86549052 -23 75.375 C-35.79360812 82.29517894 -49.68091536 85.2640613 -63.74853516 88.453125 C-65.61075431 88.90545323 -67.44751142 89.46119994 -69.2734375 90.04296875 C-74.98458078 91.50966697 -80.76840947 92.01764987 -86.625 92.625 C-88.41744141 92.82609375 -88.41744141 92.82609375 -90.24609375 93.03125 C-98.19367916 93.87508897 -106.01025714 94.16516695 -114 94 C-114 94.66 -114 95.32 -114 96 C-133.01439244 97.09796016 -151.99128605 97.12271332 -171.02862549 97.06866455 C-175.09915635 97.05824766 -179.1696939 97.0538285 -183.24023438 97.04882812 C-191.16017396 97.03825348 -199.080082 97.02129465 -207 97 C-207.30671127 97.7783017 -207.61342255 98.55660339 -207.9294281 99.35848999 C-208.93988097 101.85166338 -210.07829155 104.16920871 -211.34765625 106.5390625 C-211.78787109 107.36664063 -212.22808594 108.19421875 -212.68164062 109.046875 C-213.13732422 109.89765625 -213.59300781 110.7484375 -214.0625 111.625 C-214.97216054 113.32439389 -215.87980273 115.02487014 -216.78515625 116.7265625 C-217.18613525 117.47502441 -217.58711426 118.22348633 -218.00024414 118.99462891 C-219.11705218 121.11738388 -219.11705218 121.11738388 -220 124 C-220.66 124 -221.32 124 -222 124 C-222.12076904 124.57202148 -222.24153809 125.14404297 -222.3659668 125.73339844 C-223.03724706 128.13315431 -223.96798319 130.07122492 -225.14453125 132.265625 C-225.57443359 133.07386719 -226.00433594 133.88210937 -226.44726562 134.71484375 C-227.12305664 135.96974609 -227.12305664 135.96974609 -227.8125 137.25 C-229.12774987 139.71054088 -230.44064921 142.17213767 -231.74462891 144.63867188 C-232.5661787 146.18399075 -233.40132952 147.72217392 -234.25146484 149.25195312 C-236.39394187 152.93905588 -236.39394187 152.93905588 -236.76489258 157.05444336 C-235.45228573 160.39314875 -232.62749923 162.48094828 -230 164.8125 C-229.12565308 165.60599854 -229.12565308 165.60599854 -228.23364258 166.41552734 C-224.161036 170.07454917 -219.95338946 173.48965429 -215.51171875 176.6953125 C-214.76341797 177.34113281 -214.76341797 177.34113281 -214 178 C-214 178.66 -214 179.32 -214 180 C-213.34 180 -212.68 180 -212 180 C-212 181.32 -212 182.64 -212 184 C-257.87 184 -303.74 184 -351 184 C-351 183.34 -351 182.68 -351 182 C-351.66 182 -352.32 182 -353 182 C-353 181.34 -353 180.68 -353 180 C-310.76 180 -268.52 180 -225 180 C-227.58341734 177.41658266 -230.17105074 174.83655152 -232.8125 172.3125 C-235 170 -235 170 -235 168 C-235.5775 167.9175 -236.155 167.835 -236.75 167.75 C-239.6539336 166.78202213 -241.03740604 165.31305716 -243 163 C-243 162.34 -243 161.68 -243 161 C-244.32 161 -245.64 161 -247 161 C-248.21591505 156.57223388 -248.21591505 156.57223388 -247.28515625 154.10546875 C-246.67994141 153.15607422 -246.67994141 153.15607422 -246.0625 152.1875 C-243.36562796 147.70794983 -241.00464014 143.1207521 -238.6875 138.4375 C-238.32599854 137.71006592 -237.96449707 136.98263184 -237.59204102 136.2331543 C-236.72621659 134.48966759 -235.86284645 132.74496242 -235 131 C-234.34 131 -233.68 131 -233 131 C-232.8860791 130.28086426 -232.7721582 129.56172852 -232.65478516 128.82080078 C-231.96469377 125.84790148 -230.93414408 123.56865799 -229.5234375 120.8671875 C-229.01683594 119.89523438 -228.51023437 118.92328125 -227.98828125 117.921875 C-227.45589844 116.91640625 -226.92351562 115.9109375 -226.375 114.875 C-225.86582031 113.89273438 -225.35664062 112.91046875 -224.83203125 111.8984375 C-223.25939797 108.90294554 -221.68265503 105.93579827 -220 103 C-219.48105667 101.62610611 -219.48105667 101.62610611 -218.95162964 100.22445679 C-217.32679936 96.68374603 -215.96452699 94.55610804 -213 92 C-206.55160785 89.90208103 -199.33361023 90.60750905 -192.6484375 90.7421875 C-190.62691812 90.74280552 -188.60539162 90.73842151 -186.58389282 90.72927856 C-181.26469225 90.71795701 -175.94809631 90.7713945 -170.62939453 90.8394165 C-165.25430952 90.89818759 -159.87926724 90.90135696 -154.50390625 90.90625 C-148.44234113 90.91231906 -142.38145639 90.92274646 -136.32015991 90.98361206 C-120.45185566 91.65282799 -120.45185566 91.65282799 -105 89 C-103.41440648 88.7648686 -101.82347936 88.56479399 -100.23046875 88.38671875 C-99.27011719 88.27537598 -98.30976562 88.1640332 -97.3203125 88.04931641 C-95.76957031 87.87021729 -95.76957031 87.87021729 -94.1875 87.6875 C-64.91137829 84.13392974 -33.9537637 78.51498644 -10 60 C-9.29230469 59.484375 -8.58460938 58.96875 -7.85546875 58.4375 C0.4200907 51.90845901 9.445054 40.66510019 11 30 C11.77478997 22.44328226 11.51955394 16.27788185 7 10 C5.18979417 7.82155101 3.33948791 5.7193759 1.390625 3.6640625 C0 2 0 2 0 0 Z " fill="#494748" transform="translate(943,122)"/>
<path d="M0 0 C0.79921875 0.01804687 1.5984375 0.03609375 2.421875 0.0546875 C3.02515625 0.07789062 3.6284375 0.10109375 4.25 0.125 C4.25 0.785 4.25 1.445 4.25 2.125 C-3.13283262 5.43785291 -10.56759742 8.62030432 -18.02148438 11.76953125 C-19.781078 12.51867792 -21.53621877 13.27838399 -23.28637695 14.04931641 C-24.84421153 14.72950857 -26.4148854 15.38160725 -28.00073242 15.99365234 C-33.93989884 18.49104774 -36.12939077 22.09553655 -38.9375 27.75 C-39.57727783 28.96985596 -39.57727783 28.96985596 -40.22998047 30.21435547 C-41.42610971 32.50712755 -42.59223255 34.8126826 -43.75 37.125 C-44.47509766 38.53265625 -44.47509766 38.53265625 -45.21484375 39.96875 C-46.42139659 42.34123101 -47.58507439 44.73179935 -48.75 47.125 C-50.18235296 50.00257779 -51.62274059 52.87612239 -53.0625 55.75 C-53.76705239 57.15879151 -54.47148968 58.56764059 -55.17578125 59.9765625 C-55.69527344 61.01554687 -56.21476563 62.05453125 -56.75 63.125 C-57.41 63.125 -58.07 63.125 -58.75 63.125 C-58.86472656 63.8571875 -58.97945312 64.589375 -59.09765625 65.34375 C-59.76290519 68.18002093 -60.70793345 70.13124986 -62.1875 72.625 C-63.98021492 75.72857294 -65.54721255 78.73532628 -66.75 82.125 C-67.41 82.125 -68.07 82.125 -68.75 82.125 C-68.8325 82.99125 -68.915 83.8575 -69 84.75 C-69.85991867 88.61963402 -71.46959707 90.91818338 -73.75 94.125 C-74.08 95.115 -74.41 96.105 -74.75 97.125 C-75.41 97.125 -76.07 97.125 -76.75 97.125 C-76.9975 98.115 -77.245 99.105 -77.5 100.125 C-78.70812141 104.40595196 -80.65821294 108.21559215 -82.75 112.125 C-83.41 112.125 -84.07 112.125 -84.75 112.125 C-85.01554688 112.9809375 -85.28109375 113.836875 -85.5546875 114.71875 C-88.54116004 123.22922076 -93.17267512 131.21704744 -97.6875 139 C-100.66082603 144.13521805 -103.45952943 149.32341023 -106.125 154.625 C-106.45878662 155.2835498 -106.79257324 155.94209961 -107.13647461 156.62060547 C-109.00439812 160.37950734 -110.52357796 164.11125513 -111.75 168.125 C-110.76 168.455 -109.77 168.785 -108.75 169.125 C-107.05898547 170.7669578 -105.39638008 172.43829072 -103.75 174.125 C-101.66408456 175.98447938 -99.52038047 177.77222133 -97.375 179.5625 C-96.80499268 180.04404541 -96.23498535 180.52559082 -95.64770508 181.02172852 C-93.23712454 183.05669659 -90.81906845 185.07019447 -88.34765625 187.03125 C-86.4375 188.5625 -86.4375 188.5625 -83.75 191.125 C-83.75 192.445 -83.75 193.765 -83.75 195.125 C-101.82151362 195.19503131 -119.8929921 195.24795929 -137.96461201 195.28043652 C-146.35527897 195.29591599 -154.7458617 195.31702607 -163.13647461 195.35131836 C-170.44836822 195.38118774 -177.76020083 195.40056714 -185.07215375 195.40726548 C-188.94503813 195.41118195 -192.81774801 195.42040839 -196.69057655 195.44219017 C-200.33407497 195.46251658 -203.97732658 195.46884169 -207.62087631 195.46432304 C-209.5991556 195.46554498 -211.57740787 195.48170721 -213.55561829 195.4982605 C-214.72930969 195.49413651 -215.9030011 195.49001251 -217.11225891 195.48576355 C-218.13452733 195.48852893 -219.15679575 195.49129431 -220.210042 195.49414349 C-222.75 195.125 -222.75 195.125 -224.60235882 193.72745228 C-225.75 192.125 -225.75 192.125 -225.75 190.125 C-184.17 189.795 -142.59 189.465 -99.75 189.125 C-107.72524334 181.10455541 -107.72524334 181.10455541 -116.05859375 173.59765625 C-116.61675781 173.11167969 -117.17492187 172.62570312 -117.75 172.125 C-118.60271484 171.47337891 -118.60271484 171.47337891 -119.47265625 170.80859375 C-121.44240187 168.21238469 -121.10927692 166.29927077 -120.75 163.125 C-119.61328125 160.484375 -119.61328125 160.484375 -118.0625 157.875 C-116.05247869 154.39377427 -114.12253556 150.93282111 -112.375 147.3125 C-110.32591919 143.15484895 -108.07052754 139.13543024 -105.75 135.125 C-103.08709597 130.51753967 -100.56634148 125.881382 -98.234375 121.09765625 C-95.68205806 115.98630574 -92.98728851 110.94902968 -90.31494141 105.8996582 C-88.07628043 101.66476388 -85.87007172 97.42057015 -83.75 93.125 C-83.09 93.125 -82.43 93.125 -81.75 93.125 C-81.67265625 92.46886719 -81.5953125 91.81273437 -81.515625 91.13671875 C-80.47184536 87.03083047 -78.53292646 83.63436145 -76.5 79.9375 C-75.68272497 78.42494827 -74.8663151 76.91192874 -74.05078125 75.3984375 C-73.65584473 74.66850586 -73.2609082 73.93857422 -72.85400391 73.18652344 C-70.72606506 69.21299058 -68.7296987 65.17393151 -66.75 61.125 C-66.09 61.125 -65.43 61.125 -64.75 61.125 C-64.42 59.145 -64.09 57.165 -63.75 55.125 C-63.09 55.125 -62.43 55.125 -61.75 55.125 C-61.55531128 54.24666504 -61.55531128 54.24666504 -61.35668945 53.35058594 C-60.38974366 49.80343188 -58.60628131 46.63381796 -56.9375 43.375 C-56.59396484 42.69695312 -56.25042969 42.01890625 -55.89648438 41.3203125 C-55.20021526 39.94606277 -54.50220494 38.57269389 -53.80249023 37.20019531 C-52.74671912 35.11853109 -51.70841146 33.02879665 -50.671875 30.9375 C-49.13577056 27.86453757 -47.54184604 24.84506799 -45.8125 21.875 C-45.11833984 20.66070312 -45.11833984 20.66070312 -44.41015625 19.421875 C-40.82396347 14.46027181 -36.42622678 12.35031256 -30.8125 10.1875 C-29.8392981 9.80899902 -29.8392981 9.80899902 -28.84643555 9.42285156 C-23.16520063 7.23199915 -17.4298378 5.19414803 -11.67578125 3.203125 C-8.83443958 2.23455721 -8.83443958 2.23455721 -6.65234375 0.9921875 C-4.30761911 -0.07666028 -2.56303377 -0.07538335 0 0 Z " fill="#474547" transform="translate(631.75,111.875)"/>
<path d="M0 0 C4.44637912 0.54362664 7.15350055 2.19288756 10.75 4.8125 C12.19632812 5.84310547 12.19632812 5.84310547 13.671875 6.89453125 C16.02195033 9.01985105 16.69450118 9.91029607 17 13 C17.66 13 18.32 13 19 13 C22.52290366 22.68798506 21.93726503 31.78712672 17.61328125 41.1171875 C14.93543686 45.90229443 11.66980036 49.94390486 8 54 C7.12601562 55.01320313 7.12601562 55.01320313 6.234375 56.046875 C0.14567583 62.66502627 -7.43675603 67.25811003 -15 72 C-15.99128906 72.63035156 -16.98257812 73.26070313 -18.00390625 73.91015625 C-25.91678896 78.74152691 -34.29813777 82.40602915 -42.80395508 86.04638672 C-44.27151168 86.68366032 -45.73241348 87.33647672 -47.1862793 88.00439453 C-52.82091605 90.59007157 -58.52601885 92.63901722 -64.4375 94.5 C-65.38963379 94.80043213 -66.34176758 95.10086426 -67.32275391 95.41040039 C-73.45895991 97.30707376 -79.61214186 99.01252198 -85.875 100.4375 C-86.58068115 100.60121094 -87.2863623 100.76492188 -88.01342773 100.93359375 C-92.7840975 101.95608391 -97.15441871 102.13550283 -102 102 C-102 102.66 -102 103.32 -102 104 C-130.15946454 107.24377013 -130.15946454 107.24377013 -144.21972656 107.70874023 C-147.91574195 107.48974258 -147.91574195 107.48974258 -151 109 C-152.33043625 109.0983721 -153.66593344 109.13078592 -155 109.1328125 C-155.804375 109.13410156 -156.60875 109.13539063 -157.4375 109.13671875 C-158.7059375 109.13091797 -158.7059375 109.13091797 -160 109.125 C-160.845625 109.12886719 -161.69125 109.13273437 -162.5625 109.13671875 C-163.366875 109.13542969 -164.17125 109.13414062 -165 109.1328125 C-165.7425 109.13168457 -166.485 109.13055664 -167.25 109.12939453 C-169 109 -169 109 -170 108 C-172.07456805 107.82935128 -174.15442035 107.72273592 -176.234375 107.640625 C-177.58948337 107.57980392 -178.94454353 107.51790169 -180.29956055 107.45507812 C-181.02347992 107.4222876 -181.74739929 107.38949707 -182.49325562 107.35571289 C-200.78842247 106.49871066 -218.7599674 104.25097554 -236.87011719 101.59936523 C-240.95086271 101.00393063 -245.03442418 100.4321733 -249.12109375 99.87890625 C-250.27150146 99.72236572 -251.42190918 99.5658252 -252.60717773 99.40454102 C-257.25764249 98.85004579 -261.91182542 98.52472087 -266.5859375 98.24609375 C-269 98 -269 98 -270 97 C-272.0708472 96.8415735 -274.14678029 96.74875578 -276.22265625 96.68359375 C-277.48271484 96.64169922 -278.74277344 96.59980469 -280.04101562 96.55664062 C-281.38150736 96.51682404 -282.7220022 96.47711186 -284.0625 96.4375 C-285.40691523 96.39431958 -286.7513166 96.35070544 -288.09570312 96.30664062 C-291.3970234 96.20014642 -294.69842236 96.0981354 -298 96 C-296.125 92.125 -296.125 92.125 -295 91 C-293.36050933 90.9002262 -291.71674133 90.86919285 -290.07421875 90.8671875 C-288.54474609 90.86428711 -288.54474609 90.86428711 -286.984375 90.86132812 C-285.35242188 90.8680957 -285.35242188 90.8680957 -283.6875 90.875 C-282.59566406 90.87693359 -281.50382812 90.87886719 -280.37890625 90.88085938 C-273.20536431 90.91938078 -266.12660261 91.12480319 -259 92 C-259 92.66 -259 93.32 -259 94 C-258.09399803 93.97838303 -258.09399803 93.97838303 -257.16969299 93.95632935 C-250.94514076 93.87291713 -244.9960664 94.36348107 -238.83984375 95.2421875 C-236.90578237 95.50584817 -234.97169954 95.76935151 -233.03759766 96.03271484 C-232.04141418 96.17070496 -231.04523071 96.30869507 -230.01885986 96.4508667 C-164.23627665 105.90964575 -164.23627665 105.90964575 -99 97 C-96.11408676 96.32872743 -93.21181887 95.73544822 -90.3125 95.125 C-84.01640314 93.76271285 -77.94667659 92.15560832 -71.8671875 90 C-67.72399998 88.55496457 -63.51378958 87.3490128 -59.30078125 86.125 C-55.06651224 84.68184086 -51.06423573 82.86148814 -47 81 C-45.69687866 80.41774658 -45.69687866 80.41774658 -44.36743164 79.82373047 C-32.59591496 74.54248366 -21.78168105 69.08069412 -11.66796875 61.01953125 C-9 59 -9 59 -7 59 C-7 58.34 -7 57.68 -7 57 C-5.85423404 55.95244255 -4.6560644 54.96190283 -3.4375 54 C4.00158818 47.65373362 11.05712579 38.28584617 12.34375 28.34375 C12.60026944 20.73367332 11.85808379 13.35976871 6.796875 7.41015625 C5.18777542 5.80864676 3.54446399 4.24051038 1.86328125 2.71484375 C1.24839844 2.14894531 0.63351562 1.58304688 0 1 C0 0.67 0 0.34 0 0 Z " fill="#434143" transform="translate(391,202)"/>
<path d="M0 0 C3.45095628 0.3137233 5.03898899 1.03032477 7.8125 3.1875 C11.41617117 5.88439057 15.32278591 7.52680965 19.5 9.125 C20.10948486 9.36629639 20.71896973 9.60759277 21.34692383 9.85620117 C32.98539314 14.15287197 45.79134697 15.51670338 58.02734375 17.04296875 C59.39601981 17.21757864 60.76463545 17.39266272 62.13319397 17.56819153 C65.67848408 18.02164725 69.22453915 18.4688019 72.77081299 18.91448975 C76.41216167 19.3733126 80.05272165 19.83831002 83.69335938 20.30273438 C90.79482761 21.20774844 97.89712536 22.10608494 105 23 C105 23.66 105 24.32 105 25 C106.57201172 24.93039063 106.57201172 24.93039063 108.17578125 24.859375 C114.29222244 24.86475327 120.19788768 26.11386721 126.1875 27.25 C127.33025391 27.45496094 128.47300781 27.65992188 129.65039062 27.87109375 C141.10152019 30.00725698 152.92921456 32.21614522 162 40 C164 43 164 43 164 47 C160.94635952 46.40789978 159.10070448 45.50343057 156.6875 43.5625 C153.22355304 40.96828864 150.20365257 39.94367711 146 39 C146 38.34 146 37.68 146 37 C144.63875 36.814375 144.63875 36.814375 143.25 36.625 C139.70336883 36.11416835 136.16327543 35.56578629 132.625 35 C131.58601562 34.835 130.54703125 34.67 129.4765625 34.5 C127 34 127 34 126 33 C124.68963251 32.74804639 123.3681884 32.5531922 122.04467773 32.38330078 C121.20052811 32.27284424 120.35637848 32.1623877 119.48664856 32.04858398 C118.56164047 31.93200439 117.63663239 31.8154248 116.68359375 31.6953125 C115.72752731 31.57148193 114.77146088 31.44765137 113.78642273 31.32006836 C110.67063023 30.91758958 107.55409515 30.52121118 104.4375 30.125 C102.32206027 29.8530329 100.20666302 29.58073522 98.09130859 29.30810547 C92.06166082 28.53249529 86.03105616 27.76457454 80 27 C79.21606873 26.90058105 78.43213745 26.80116211 77.62445068 26.69873047 C70.4179493 25.78564153 63.21014828 24.88382463 56 24 C56 23.34 56 22.68 56 22 C55.15179688 21.96261719 54.30359375 21.92523438 53.4296875 21.88671875 C44.67603684 21.39612954 36.53085845 20.05645838 28 18 C26.40091797 17.64228516 26.40091797 17.64228516 24.76953125 17.27734375 C15.69511456 15.17263113 6.1313835 12.53890235 0 5 C-0.4375 2.125 -0.4375 2.125 0 0 Z " fill="#484647" transform="translate(165,196)"/>
<path d="M0 0 C1.01760406 0.03187912 2.03520813 0.06375824 3.08364868 0.09660339 C4.15402374 0.10080795 5.2243988 0.10501251 6.32720947 0.10934448 C8.60202989 0.12581404 10.8767799 0.16154324 13.15103149 0.2150116 C16.54876699 0.29410094 19.94289888 0.31736256 23.34146118 0.32902527 C37.83449215 0.45693219 51.93124154 1.79261378 66.24771118 3.98332214 C68.58036576 4.32163146 70.9139688 4.65257905 73.24771118 4.98332214 C73.24771118 5.97332214 73.24771118 6.96332214 73.24771118 7.98332214 C64.85766403 8.11937696 56.60391075 7.73807565 48.24771118 6.98332214 C48.24771118 6.32332214 48.24771118 5.66332214 48.24771118 4.98332214 C32.07771118 4.98332214 15.90771118 4.98332214 -0.75228882 4.98332214 C-1.08228882 6.30332214 -1.41228882 7.62332214 -1.75228882 8.98332214 C-3.25228882 11.48332214 -3.25228882 11.48332214 -4.75228882 13.98332214 C-5.44808336 16.17462749 -5.44808336 16.17462749 -5.75228882 17.98332214 C-6.41228882 17.98332214 -7.07228882 17.98332214 -7.75228882 17.98332214 C-8.00881226 18.65750183 -8.26533569 19.33168152 -8.52963257 20.02629089 C-9.97695482 23.52668368 -11.62050167 26.91056024 -13.31478882 30.29582214 C-13.66122437 30.98933777 -14.00765991 31.68285339 -14.36459351 32.39738464 C-17.27618573 38.16342812 -20.38599281 43.80356037 -23.60604858 49.4025116 C-25.83254979 53.28400296 -27.87685043 57.20296315 -29.78256226 61.25285339 C-31.28823037 63.93970526 -33.14000555 65.41595218 -35.75228882 66.98332214 C-37.07228882 66.98332214 -38.39228882 66.98332214 -39.75228882 66.98332214 C-40.1124931 61.98548777 -39.09618817 59.00313342 -36.75228882 54.60832214 C-36.19541382 53.54871277 -35.63853882 52.48910339 -35.06478882 51.39738464 C-34.63166382 50.60074402 -34.19853882 49.80410339 -33.75228882 48.98332214 C-33.09228882 48.98332214 -32.43228882 48.98332214 -31.75228882 48.98332214 C-31.68139038 48.34007996 -31.61049194 47.69683777 -31.53744507 47.03410339 C-30.42371471 42.70662376 -28.32149457 39.07875296 -26.18978882 35.17082214 C-25.27682969 33.47110657 -24.36539519 31.77057128 -23.45541382 30.06925964 C-22.99973022 29.21815613 -22.54404663 28.36705261 -22.07455444 27.49015808 C-19.79967165 23.17728944 -17.65078264 18.80192011 -15.52938843 14.41178894 C-14.95708491 13.24505555 -14.36889092 12.08591191 -13.7612915 10.93716431 C-13.0800604 9.61802208 -12.4451739 8.27405694 -11.85523987 6.91163635 C-8.95495761 1.07918337 -6.3968744 0.06136246 0 0 Z " fill="#403E40" transform="translate(782.7522888183594,127.01667785644531)"/>
<path d="M0 0 C0.66 0 1.32 0 2 0 C2.51046875 1.17755859 2.51046875 1.17755859 3.03125 2.37890625 C8.05320028 13.26425062 13.78827324 18.82155554 25 23 C25 23.66 25 24.32 25 25 C24.21496094 25.3403125 23.42992187 25.680625 22.62109375 26.03125 C11.73574938 31.05320028 6.17844446 36.78827324 2 48 C1.34 48 0.68 48 0 48 C-0.3403125 47.21496094 -0.680625 46.42992187 -1.03125 45.62109375 C-6.05320028 34.73574938 -11.78827324 29.17844446 -23 25 C-23 24.34 -23 23.68 -23 23 C-22.21496094 22.6596875 -21.42992187 22.319375 -20.62109375 21.96875 C-9.73574938 16.94679972 -4.17844446 11.21172676 0 0 Z " fill="#868686" transform="translate(1287,688)"/>
<path d="M0 0 C1.52947266 -0.00290039 1.52947266 -0.00290039 3.08984375 -0.00585938 C4.72179687 0.0009082 4.72179687 0.0009082 6.38671875 0.0078125 C7.47855469 0.00974609 8.57039063 0.01167969 9.6953125 0.01367188 C16.86885444 0.05219328 23.94761614 0.25761569 31.07421875 1.1328125 C31.07421875 1.7928125 31.07421875 2.4528125 31.07421875 3.1328125 C31.67822006 3.11840118 32.28222137 3.10398987 32.90452576 3.08914185 C39.1290842 3.00572955 45.07814435 3.49632785 51.234375 4.375 C53.16843799 4.63856752 55.10252075 4.90198994 57.03662109 5.1652832 C58.03280457 5.30326324 59.02898804 5.44124329 60.05535889 5.58340454 C90.79889955 9.81783477 121.06911081 11.5642507 152.07421875 12.1328125 C152.07421875 12.4628125 152.07421875 12.7928125 152.07421875 13.1328125 C145.90734103 13.99012377 139.79232963 14.41965497 133.57421875 14.6953125 C132.1975 14.76008789 132.1975 14.76008789 130.79296875 14.82617188 C128.55351313 14.93114636 126.31388219 15.03236958 124.07421875 15.1328125 C129.35421875 15.4628125 134.63421875 15.7928125 140.07421875 16.1328125 C139.74421875 16.7928125 139.41421875 17.4528125 139.07421875 18.1328125 C136.09499282 18.15965237 133.1160058 18.17957287 130.13671875 18.1953125 C128.86151367 18.20788086 128.86151367 18.20788086 127.56054688 18.22070312 C126.75166016 18.22392578 125.94277344 18.22714844 125.109375 18.23046875 C124.36051025 18.23570557 123.61164551 18.24094238 122.84008789 18.24633789 C121.07421875 18.1328125 121.07421875 18.1328125 120.07421875 17.1328125 C117.9996507 16.96216378 115.9197984 16.85554842 113.83984375 16.7734375 C112.48473538 16.71261642 111.12967522 16.65071419 109.7746582 16.58789062 C109.05073883 16.5551001 108.32681946 16.52230957 107.58096313 16.48852539 C89.28579628 15.63152316 71.31425135 13.38378804 53.20410156 10.73217773 C49.12335604 10.13674313 45.03979457 9.5649858 40.953125 9.01171875 C39.80271729 8.85517822 38.65230957 8.6986377 37.46704102 8.53735352 C32.81657626 7.98285829 28.16239333 7.65753337 23.48828125 7.37890625 C21.07421875 7.1328125 21.07421875 7.1328125 20.07421875 6.1328125 C18.00337155 5.974386 15.92743846 5.88156828 13.8515625 5.81640625 C11.96147461 5.75356445 11.96147461 5.75356445 10.03320312 5.68945312 C8.69271139 5.64963654 7.35221655 5.60992436 6.01171875 5.5703125 C4.66730352 5.52713208 3.32290215 5.48351794 1.97851562 5.43945312 C-1.32280465 5.33295892 -4.62420361 5.2309479 -7.92578125 5.1328125 C-5.67650951 0.48431757 -5.22828147 0.00638318 0 0 Z " fill="#595759" transform="translate(100.92578125,292.8671875)"/>
<path d="M0 0 C0.91425751 -0.00428513 1.82851501 -0.00857025 2.77047729 -0.01298523 C4.69512099 -0.01870789 6.61978631 -0.01924407 8.54443359 -0.01489258 C11.48963039 -0.0117215 14.43383264 -0.03525568 17.37890625 -0.06054688 C19.2526029 -0.06281896 21.12630225 -0.06352379 23 -0.0625 C24.31884689 -0.07631462 24.31884689 -0.07631462 25.66433716 -0.09040833 C31.78175898 -0.04400795 31.78175898 -0.04400795 34.95263672 1.82348633 C35.41943848 2.31099365 35.88624023 2.79850098 36.3671875 3.30078125 C34.40749084 5.26047791 30.59457457 4.43846005 27.9140625 4.44140625 C26.33811892 4.45579696 24.76219024 4.47189629 23.1862793 4.48950195 C21.94338638 4.50311264 21.94338638 4.50311264 20.67538452 4.51699829 C2.61872556 4.75545036 -14.40996757 5.61324755 -30.6328125 14.30078125 C-31.48230469 14.73261719 -32.33179688 15.16445312 -33.20703125 15.609375 C-39.87752466 19.17272545 -44.93208607 22.94880376 -47.6328125 30.30078125 C-47.82126974 34.63529782 -46.3075836 37.07169615 -43.6953125 40.36328125 C-40.17627089 44.18959884 -36.40943953 46.24622637 -31.671875 48.29296875 C-29.6328125 49.30078125 -29.6328125 49.30078125 -28.6328125 51.30078125 C-38.41309874 50.5763156 -46.99410346 47.16173732 -54.4453125 40.73828125 C-57.16915281 37.44100088 -57.27650153 33.16280031 -57.22265625 29.05859375 C-55.63987055 21.65828445 -48.43562704 16.59420377 -42.5078125 12.48828125 C-35.94141803 8.56141065 -28.92408175 6.48570705 -21.6328125 4.30078125 C-18.73782672 3.34804768 -15.87796149 2.39985196 -13.05200195 1.2578125 C-8.63614271 0.02181334 -4.56340895 -0.00475229 0 0 Z " fill="#434243" transform="translate(290.6328125,121.69921875)"/>
<path d="M0 0 C7.48924795 1.44350584 13.77745231 6.85811245 18 13 C21.07822933 20.69013476 21.64423868 30.07530179 18.375 37.8125 C17.62106235 39.22906797 16.82866939 40.62581157 16 42 C15.59910156 42.71285156 15.19820312 43.42570312 14.78515625 44.16015625 C7.6367824 55.90835327 -4.14524633 67.00092913 -17 72 C-18.21648372 72.73670673 -19.42484996 73.48697357 -20.625 74.25 C-24 76 -24 76 -26.9375 75.75 C-27.9584375 75.37875 -27.9584375 75.37875 -29 75 C-25.48577687 70.38716851 -22.14815164 67.50192136 -17.1875 64.5625 C-5.35103846 57.17928468 7.00159355 46.44168536 10.66796875 32.27734375 C11.86290402 24.08149358 11.96699788 16.8994034 7 10 C5.18979417 7.82155101 3.33948791 5.7193759 1.390625 3.6640625 C0 2 0 2 0 0 Z " fill="#444243" transform="translate(943,122)"/>
<path d="M0 0 C0.99 0.495 0.99 0.495 2 1 C1.34 1.598125 0.68 2.19625 0 2.8125 C-2.3373846 4.87501834 -2.3373846 4.87501834 -2 8 C-13.75053939 12.48152944 -25.50976658 15.73937411 -37.78076172 18.46923828 C-39.63029835 18.91158071 -41.45344863 19.46246093 -43.265625 20.0390625 C-48.97930828 21.50931991 -54.76513101 22.01730988 -60.625 22.625 C-61.81996094 22.7590625 -63.01492188 22.893125 -64.24609375 23.03125 C-72.19367916 23.87508897 -80.01025714 24.16516695 -88 24 C-88 24.66 -88 25.32 -88 26 C-104.01105858 26.85720604 -119.96723069 27.13183175 -136 27 C-136 26.67 -136 26.34 -136 26 C-128.08 25.67 -120.16 25.34 -112 25 C-112 24.67 -112 24.34 -112 24 C-136.75 23.67 -161.5 23.34 -187 23 C-187 22.67 -187 22.34 -187 22 C-185.31442741 21.9845388 -185.31442741 21.9845388 -183.59480286 21.96876526 C-172.95903058 21.87063319 -162.32331165 21.76786508 -151.68762684 21.66066074 C-146.22088792 21.60570397 -140.75414346 21.55233049 -135.28735352 21.50268555 C-130.0029092 21.45463643 -124.71852281 21.40228444 -119.43414879 21.34705925 C-117.42695259 21.3268177 -115.41974063 21.30807701 -113.41251564 21.29092598 C-95.97129122 21.84814221 -95.97129122 21.84814221 -79 19 C-77.41440648 18.7648686 -75.82347936 18.56479399 -74.23046875 18.38671875 C-73.27011719 18.27537598 -72.30976562 18.1640332 -71.3203125 18.04931641 C-69.76957031 17.87021729 -69.76957031 17.87021729 -68.1875 17.6875 C-46.21443895 15.02038387 -25.73008942 11.09936304 -5.4050293 2.1472168 C-3.62608412 1.37671421 -1.81503009 0.68116514 0 0 Z " fill="#444243" transform="translate(917,192)"/>
<path d="M0 0 C0 0.99 0 1.98 0 3 C-2.31640625 4.91015625 -2.31640625 4.91015625 -5.5625 7.0625 C-6.14676758 7.4546167 -6.73103516 7.8467334 -7.33300781 8.25073242 C-9.21533512 9.51085429 -11.10681974 10.75625552 -13 12 C-14.80749247 13.196886 -16.61350591 14.39596688 -18.41894531 15.59594727 C-19.64506645 16.41058215 -20.87229178 17.22355738 -22.10058594 18.03491211 C-28.01581555 21.9608753 -33.79454299 26.0743656 -39.54199219 30.24145508 C-40.56728027 30.97658325 -40.56728027 30.97658325 -41.61328125 31.7265625 C-42.21954346 32.16564941 -42.82580566 32.60473633 -43.45043945 33.05712891 C-45 34 -45 34 -47 34 C-47 34.66 -47 35.32 -47 36 C-48.93009324 37.3245153 -50.92233397 38.5589053 -52.9375 39.75 C-54.13380672 40.46187352 -55.32911529 41.17542702 -56.5234375 41.890625 C-57.11479492 42.24447266 -57.70615234 42.59832031 -58.31542969 42.96289062 C-61.33878941 44.82422861 -64.21981042 46.89184015 -67.09765625 48.96875 C-69 50 -69 50 -73 50 C-73.2109375 47.68408203 -73.2109375 47.68408203 -73 45 C-71.6015625 43.41357422 -71.6015625 43.41357422 -69.625 42.0546875 C-68.89514893 41.54075439 -68.16529785 41.02682129 -67.41333008 40.49731445 C-66.61693115 39.96195068 -65.82053223 39.42658691 -65 38.875 C-64.18490967 38.3080542 -63.36981934 37.7411084 -62.5300293 37.15698242 C-60.03005657 35.42287628 -57.51565485 33.71124486 -55 32 C-53.58853222 31.02142025 -52.1782915 30.04106725 -50.76953125 29.05859375 C-46.86587613 26.34331896 -42.93789385 23.66531234 -39 21 C-38.37528809 20.5762207 -37.75057617 20.15244141 -37.10693359 19.71582031 C-7.73934361 -0.1682466 -7.73934361 -0.1682466 0 0 Z " fill="#444344" transform="translate(453,112)"/>
<path d="M0 0 C1.52947266 -0.00290039 1.52947266 -0.00290039 3.08984375 -0.00585938 C4.72179687 0.0009082 4.72179687 0.0009082 6.38671875 0.0078125 C7.47855469 0.00974609 8.57039063 0.01167969 9.6953125 0.01367188 C16.86885444 0.05219328 23.94761614 0.25761569 31.07421875 1.1328125 C31.07421875 1.7928125 31.07421875 2.4528125 31.07421875 3.1328125 C31.66702637 3.11541016 32.25983398 3.09800781 32.87060547 3.08007812 C39.45030947 2.97248709 45.70542666 3.62043761 52.19921875 4.6328125 C53.15570313 4.77589844 54.1121875 4.91898437 55.09765625 5.06640625 C57.42424091 5.41539395 59.74961031 5.77093583 62.07421875 6.1328125 C62.07421875 6.7928125 62.07421875 7.4528125 62.07421875 8.1328125 C64.38421875 8.1328125 66.69421875 8.1328125 69.07421875 8.1328125 C68.74421875 8.7928125 68.41421875 9.4528125 68.07421875 10.1328125 C57.7483579 10.332883 47.82935387 10.21865944 37.60546875 8.640625 C32.91194811 7.96567181 28.21944052 7.66093399 23.48828125 7.37890625 C21.07421875 7.1328125 21.07421875 7.1328125 20.07421875 6.1328125 C18.00337155 5.974386 15.92743846 5.88156828 13.8515625 5.81640625 C11.96147461 5.75356445 11.96147461 5.75356445 10.03320312 5.68945312 C8.69271139 5.64963654 7.35221655 5.60992436 6.01171875 5.5703125 C4.66730352 5.52713208 3.32290215 5.48351794 1.97851562 5.43945312 C-1.32280465 5.33295892 -4.62420361 5.2309479 -7.92578125 5.1328125 C-5.67650951 0.48431757 -5.22828147 0.00638318 0 0 Z " fill="#616061" transform="translate(100.92578125,292.8671875)"/>
<path d="M0 0 C3.625 -0.1875 3.625 -0.1875 7 0 C7.03867188 1.2684375 7.03867188 1.2684375 7.078125 2.5625 C7.58530067 12.70601337 9.405138 19.27443637 16.86328125 26.328125 C21.67519489 30.0932055 27.20685281 33.06895094 33 35 C33 35.66 33 36.32 33 37 C18.7685232 36.06678841 9.87623833 30.90950722 0.421875 20.21484375 C-3.05563277 15.23123226 -2.72860909 8.79498393 -2 3 C-1.34 2.01 -0.68 1.02 0 0 Z " fill="#413F40" transform="translate(166,242)"/>
<path d="M0 0 C14.71276733 2.22375494 29.40897012 4.14791763 44.22869873 5.50546265 C45.1685965 5.59201111 46.10849426 5.67855957 47.07687378 5.76773071 C86.99147564 10.0339175 86.99147564 10.0339175 126.10369873 4.31796265 C127.66488301 4.250554 129.22872393 4.23281808 130.79119873 4.25546265 C132.00356201 4.2689978 132.00356201 4.2689978 133.24041748 4.2828064 C134.1627417 4.30020874 134.1627417 4.30020874 135.10369873 4.31796265 C131.65998771 6.34019098 128.47822148 6.85699258 124.54119873 7.38046265 C123.40553467 7.53643921 122.26987061 7.69241577 121.09979248 7.8531189 C119.76821932 8.01195534 118.43614036 8.16658429 117.10369873 8.31796265 C116.35265869 8.40771362 115.60161865 8.4974646 114.82781982 8.5899353 C76.83035775 12.63066944 37.38253482 8.24838456 -0.18878174 2.47567749 C-36.72093293 -3.27607319 -36.72093293 -3.27607319 -72.89630127 2.31796265 C-74.29069791 2.38461641 -75.68800002 2.40334463 -77.08380127 2.38046265 C-78.97098877 2.34952515 -78.97098877 2.34952515 -80.89630127 2.31796265 C-80.89630127 1.65796265 -80.89630127 0.99796265 -80.89630127 0.31796265 C-79.58661377 0.18518921 -78.27692627 0.05241577 -76.92755127 -0.0843811 C-73.83575803 -0.4262389 -70.79482096 -0.85034836 -67.74005127 -1.4359436 C-44.87603848 -5.77981592 -22.83664654 -3.45581238 0 0 Z " fill="#EFF0EF" transform="translate(149.89630126953125,288.6820373535156)"/>
<path d="M0 0 C3.80635497 3.20760251 7.54563567 6.40746109 11 10 C9 12 9 12 6.78611565 12.24609566 C5.8587919 12.24425207 4.93146816 12.24240849 3.9760437 12.24050903 C2.91311096 12.24325836 1.85017822 12.24600769 0.7550354 12.24884033 C-1.00146835 12.2380545 -1.00146835 12.2380545 -2.79345703 12.22705078 C-4.02269897 12.22734283 -5.25194092 12.22763489 -6.51843262 12.22793579 C-9.8943349 12.22677906 -13.26999425 12.21673089 -16.64585352 12.20278788 C-20.1719253 12.19030718 -23.69800012 12.18911212 -27.22409058 12.18673706 C-33.90350675 12.18051444 -40.58285766 12.1640931 -47.26224506 12.14403808 C-54.86552332 12.12170335 -62.46880466 12.11069177 -70.07210755 12.10064721 C-85.7147762 12.07972751 -101.35737969 12.04453641 -117 12 C-116.67 11.01 -116.34 10.02 -116 9 C-114.02 8.67 -112.04 8.34 -110 8 C-110 8.33 -110 8.66 -110 9 C-86.78759897 10.20205886 -63.5885379 10.12091399 -40.3526001 10.06866455 C-35.22270122 10.05826242 -30.0927971 10.05383151 -24.96289062 10.04882812 C-14.97524704 10.03824192 -4.98762615 10.02127418 5 10 C5 9.34 5 8.68 5 8 C3.02 7.34 1.04 6.68 -1 6 C-0.67 4.02 -0.34 2.04 0 0 Z " fill="#F0F0F0" transform="translate(513,283)"/>
<path d="M0 0 C6.73351785 -0.10348644 13.3007618 0.27694574 20 0.9375 C20.95261719 1.02451172 21.90523437 1.11152344 22.88671875 1.20117188 C23.79035156 1.28818359 24.69398438 1.37519531 25.625 1.46484375 C26.85089844 1.58267212 26.85089844 1.58267212 28.1015625 1.70288086 C30 2 30 2 31 3 C32.33802186 3.22513101 33.68573023 3.39360807 35.03515625 3.53515625 C35.84404297 3.62216797 36.65292969 3.70917969 37.48632812 3.79882812 C38.33646484 3.88583984 39.18660156 3.97285156 40.0625 4.0625 C41.34350586 4.19881836 41.34350586 4.19881836 42.65039062 4.33789062 C44.76651535 4.56250722 46.88320894 4.78175227 49 5 C49 5.66 49 6.32 49 7 C46.02077407 7.02683987 43.04178705 7.04676037 40.0625 7.0625 C38.78729492 7.07506836 38.78729492 7.07506836 37.48632812 7.08789062 C36.67744141 7.09111328 35.86855469 7.09433594 35.03515625 7.09765625 C34.2862915 7.10289307 33.53742676 7.10812988 32.76586914 7.11352539 C31 7 31 7 30 6 C28.13971966 5.90349563 26.27572971 5.87812708 24.41294861 5.87974548 C22.59342934 5.87768349 22.59342934 5.87768349 20.7371521 5.87557983 C19.38067603 5.87911944 18.0242002 5.88275425 16.66772461 5.88647461 C15.24887596 5.88675648 13.83002716 5.88659876 12.41117859 5.8860321 C8.54771199 5.88574411 4.68427617 5.8916411 0.82081676 5.89860606 C-3.21242573 5.90483933 -7.24566885 5.90544338 -11.27891541 5.90663147 C-18.92165468 5.90974486 -26.56437973 5.91795836 -34.20711273 5.92798096 C-42.90588019 5.93914184 -51.60464831 5.94465248 -60.30342114 5.94967639 C-78.20228884 5.96014097 -96.10114328 5.97774057 -114 6 C-114 5.67 -114 5.34 -114 5 C-90.58888832 3.95256741 -67.1781472 3.70084236 -43.74749756 3.46777344 C-38.68450201 3.41663936 -33.62155068 3.36144385 -28.55859375 3.30664062 C-18.70576733 3.20056345 -8.85290176 3.09881479 1 3 C1.33 2.34 1.66 1.68 2 1 C1.01 0.505 1.01 0.505 0 0 Z " fill="#D03334" transform="translate(1240,365)"/>
<path d="M0 0 C6.84196507 -0.07753582 13.68381281 -0.12920485 20.52612305 -0.16479492 C22.84257233 -0.17966753 25.1589946 -0.19997175 27.4753418 -0.22631836 C43.26055247 -0.40106239 58.40586561 0.55393025 74 3 C76.33234347 3.34081671 78.66595987 3.67095037 81 4 C81 4.99 81 5.98 81 7 C72.60995285 7.13605482 64.35619957 6.75475351 56 6 C56 5.34 56 4.68 56 4 C40.82 4 25.64 4 10 4 C10.33 3.34 10.66 2.68 11 2 C7.37 1.67 3.74 1.34 0 1 C0 0.67 0 0.34 0 0 Z " fill="#656566" transform="translate(775,128)"/>
<path d="M0 0 C7.09017714 -0.07762646 14.18024061 -0.12924044 21.27075195 -0.16479492 C23.67053316 -0.17965474 26.07028838 -0.19994822 28.4699707 -0.22631836 C84.91523503 -0.82994773 84.91523503 -0.82994773 105 12 C105.495 12.99 105.495 12.99 106 14 C103.58829487 13.04633804 101.18875282 12.08340241 98.81640625 11.03515625 C75.29936215 0.88655316 47.8900961 2.77839612 22.84375 2.9855957 C21.86083984 2.99235321 20.87792969 2.99911072 19.86523438 3.006073 C18.01232611 3.01982851 16.15944403 3.03824881 14.30664062 3.06228638 C9.10263457 3.10197984 4.15007401 2.76036611 -1 2 C-0.67 1.34 -0.34 0.68 0 0 Z " fill="#ECEEEE" transform="translate(766,119)"/>
<path d="M0 0 C0.92133224 -0.00570007 1.84266449 -0.01140015 2.79191589 -0.01727295 C4.74643805 -0.0267394 6.70097628 -0.03326343 8.65551758 -0.03710938 C11.6449785 -0.04680047 14.63374793 -0.07780224 17.62304688 -0.109375 C19.51952716 -0.11590619 21.41601237 -0.12115621 23.3125 -0.125 C24.20741653 -0.1373468 25.10233307 -0.1496936 26.02436829 -0.16241455 C32.26949094 -0.14003154 32.26949094 -0.14003154 35.4519043 1.72363281 C35.91508057 2.21186523 36.37825684 2.70009766 36.85546875 3.203125 C34.83140587 5.22718788 30.69329192 4.4120785 27.91015625 4.44921875 C26.25910982 4.4821842 24.60806828 4.51539535 22.95703125 4.54882812 C20.3502981 4.59605864 17.74358079 4.6404263 15.13671875 4.67993164 C12.62347477 4.71991942 10.11065948 4.77142719 7.59765625 4.82421875 C6.82759247 4.8326329 6.05752869 4.84104706 5.26412964 4.84971619 C0.43668061 4.95872182 -3.53429087 5.78874297 -8.14453125 7.203125 C-10.58203125 6.828125 -10.58203125 6.828125 -12.14453125 6.203125 C-11.15453125 6.203125 -10.16453125 6.203125 -9.14453125 6.203125 C-9.42296875 4.9965625 -9.42296875 4.9965625 -9.70703125 3.765625 C-9.85140625 2.92 -9.99578125 2.074375 -10.14453125 1.203125 C-7.98486838 -0.95653787 -2.99968884 0.01414924 0 0 Z " fill="#575657" transform="translate(290.14453125,121.796875)"/>
<path d="M0 0 C0.79921875 0.01804687 1.5984375 0.03609375 2.421875 0.0546875 C3.02515625 0.07789062 3.6284375 0.10109375 4.25 0.125 C4.25 0.785 4.25 1.445 4.25 2.125 C-2.29110835 5.0502037 -8.85515129 7.91888228 -15.4375 10.75 C-16.34822266 11.14445312 -17.25894531 11.53890625 -18.19726562 11.9453125 C-22.66661277 13.86677475 -27.09471809 15.6890424 -31.75 17.125 C-31.853125 16.485625 -31.95625 15.84625 -32.0625 15.1875 C-32.289375 14.506875 -32.51625 13.82625 -32.75 13.125 C-33.74 12.795 -34.73 12.465 -35.75 12.125 C-27.79228289 9.01858219 -19.81268198 6.0492263 -11.74609375 3.23828125 C-8.84493867 2.23917355 -8.84493867 2.23917355 -6.64453125 0.98828125 C-4.30429164 -0.07809598 -2.55796115 -0.07523415 0 0 Z " fill="#515151" transform="translate(631.75,111.875)"/>
<path d="M0 0 C38.61 0 77.22 0 117 0 C117 0.66 117 1.32 117 2 C114.068542 3.20282097 111.12902758 4.38454273 108.1875 5.5625 C107.35412109 5.90474609 106.52074219 6.24699219 105.66210938 6.59960938 C104.85966797 6.91865234 104.05722656 7.23769531 103.23046875 7.56640625 C102.12288208 8.01415405 102.12288208 8.01415405 100.99291992 8.47094727 C99 9 99 9 96 8 C97.43429001 7.32645501 98.87257057 6.66140299 100.3125 6 C101.51326172 5.443125 101.51326172 5.443125 102.73828125 4.875 C105 4 105 4 108 4 C108 3.34 108 2.68 108 2 C106.77216797 2.00580078 105.54433594 2.01160156 104.27929688 2.01757812 C83.98850882 2.07955948 63.70154885 1.79156904 43.4128418 1.53643799 C38.50440774 1.47503628 33.59595301 1.41533308 28.6875 1.35546875 C19.12497955 1.23860139 9.56248272 1.11991178 0 1 C0 0.67 0 0.34 0 0 Z " fill="#E6E6E7" transform="translate(508,106)"/>
<path d="M0 0 C9.70857847 0.7327229 20.20501364 3.58728761 27 11 C28 14.375 28 14.375 28 17 C24.94635952 16.40789978 23.10070448 15.50343057 20.6875 13.5625 C17.22355304 10.96828864 14.20365257 9.94367711 10 9 C10 8.34 10 7.68 10 7 C9.0925 6.87625 8.185 6.7525 7.25 6.625 C1.81714555 5.85207844 -3.58965229 4.9150506 -9 4 C-9 3.67 -9 3.34 -9 3 C-6.03 3 -3.06 3 0 3 C0 2.01 0 1.02 0 0 Z " fill="#474545" transform="translate(301,226)"/>
<path d="M0 0 C4.13994283 -0.24352605 7.10290461 0.66155583 11 2 C12.03898437 2.29519531 13.07796875 2.59039062 14.1484375 2.89453125 C22.87301655 5.37670568 30.93555345 7.98129297 36 16 C36 16.99 36 17.98 36 19 C33.06699158 18.4031436 31.04267293 17.53969111 28.6015625 15.8203125 C19.78079864 9.82571603 12.72931765 6.33097864 2 5 C1.12601562 4.87367187 0.25203125 4.74734375 -0.6484375 4.6171875 C-2.42753547 4.37373199 -4.21323341 4.17867666 -6 4 C-6 3.67 -6 3.34 -6 3 C-2.535 2.505 -2.535 2.505 1 2 C0.67 1.34 0.34 0.68 0 0 Z " fill="#DFDEDE" transform="translate(325,123)"/>
<path d="M0 0 C27.39 0 54.78 0 83 0 C83 0.66 83 1.32 83 2 C88.28 2 93.56 2 99 2 C99 2.66 99 3.32 99 4 C82.98894142 4.85720604 67.03276931 5.13183175 51 5 C51 4.67 51 4.34 51 4 C58.92 3.67 66.84 3.34 75 3 C75 2.67 75 2.34 75 2 C50.25 1.67 25.5 1.34 0 1 C0 0.67 0 0.34 0 0 Z " fill="#787779" transform="translate(730,214)"/>
<path d="M0 0 C1.52947266 -0.00290039 1.52947266 -0.00290039 3.08984375 -0.00585938 C4.72179687 0.0009082 4.72179687 0.0009082 6.38671875 0.0078125 C7.47855469 0.00974609 8.57039063 0.01167969 9.6953125 0.01367188 C16.86885444 0.05219328 23.94761614 0.25761569 31.07421875 1.1328125 C31.07421875 1.4628125 31.07421875 1.7928125 31.07421875 2.1328125 C30.11708984 2.20628906 30.11708984 2.20628906 29.140625 2.28125 C28.31433594 2.35601562 27.48804688 2.43078125 26.63671875 2.5078125 C25.81300781 2.57742188 24.98929688 2.64703125 24.140625 2.71875 C23.45871094 2.85539062 22.77679688 2.99203125 22.07421875 3.1328125 C21.74421875 3.7928125 21.41421875 4.4528125 21.07421875 5.1328125 C11.50421875 5.1328125 1.93421875 5.1328125 -7.92578125 5.1328125 C-5.36264861 0.00654723 -5.36264861 0.00654723 0 0 Z " fill="#666566" transform="translate(100.92578125,292.8671875)"/>
<path d="M0 0 C1.43596527 -0.00021904 1.43596527 -0.00021904 2.90093994 -0.0004425 C6.02822225 0.00024763 9.15544309 0.00799743 12.28271484 0.01586914 C14.46560636 0.01773652 16.6484983 0.01915891 18.83139038 0.02015686 C24.5490639 0.02395684 30.26671161 0.03376537 35.984375 0.04486084 C41.82991182 0.05512937 47.67545284 0.0596661 53.52099609 0.06469727 C64.97022612 0.07539011 76.41943708 0.09243596 87.86865234 0.11352539 C87.86865234 0.44352539 87.86865234 0.77352539 87.86865234 1.11352539 C45.29865234 1.60852539 45.29865234 1.60852539 1.86865234 2.11352539 C1.86865234 2.44352539 1.86865234 2.77352539 1.86865234 3.11352539 C-5.46468099 3.11352539 -12.79801432 3.11352539 -20.13134766 3.11352539 C-20.13134766 2.45352539 -20.13134766 1.79352539 -20.13134766 1.11352539 C-13.3958023 0.32364799 -6.77894523 -0.02768246 0 0 Z " fill="#F4F5F5" transform="translate(515.13134765625,104.886474609375)"/>
<path d="M0 0 C0.969375 0.86625 1.93875 1.7325 2.9375 2.625 C8.67957255 7.53017128 14.58028088 12.09750792 22 14 C22 14.66 22 15.32 22 16 C11.27461317 15.29669595 2.7692422 12.59659238 -5 5 C-4.01 4.67 -3.02 4.34 -2 4 C-0.79117904 1.99983534 -0.79117904 1.99983534 0 0 Z " fill="#555354" transform="translate(177,263)"/>
<path d="M0 0 C0.70189453 0.00451172 1.40378906 0.00902344 2.12695312 0.01367188 C3.85550538 0.02543073 5.58401365 0.04336546 7.3125 0.0625 C7.3125 1.0525 7.3125 2.0425 7.3125 3.0625 C6.60222656 3.12308594 5.89195312 3.18367187 5.16015625 3.24609375 C4.24105469 3.32988281 3.32195313 3.41367188 2.375 3.5 C1.45847656 3.58121094 0.54195312 3.66242188 -0.40234375 3.74609375 C-2.64909732 3.82294976 -2.64909732 3.82294976 -3.6875 5.0625 C-5.83308827 5.15025605 -7.98154421 5.16945219 -10.12890625 5.16015625 C-11.43408203 5.15693359 -12.73925781 5.15371094 -14.08398438 5.15039062 C-15.4726569 5.14203401 -16.86132877 5.13356905 -18.25 5.125 C-19.64257656 5.11998666 -21.03515481 5.11542347 -22.42773438 5.11132812 C-25.8476987 5.09949434 -29.26757844 5.0830088 -32.6875 5.0625 C-32.6875 4.4025 -32.6875 3.7425 -32.6875 3.0625 C-32.03676514 3.00715088 -31.38603027 2.95180176 -30.71557617 2.89477539 C-27.76837901 2.64196307 -24.8216994 2.38354674 -21.875 2.125 C-20.85083984 2.03798828 -19.82667969 1.95097656 -18.77148438 1.86132812 C-17.29711914 1.73081055 -17.29711914 1.73081055 -15.79296875 1.59765625 C-14.43401489 1.47982788 -14.43401489 1.47982788 -13.04760742 1.35961914 C-2.05007739 -0.02488423 -2.05007739 -0.02488423 0 0 Z " fill="#4A494A" transform="translate(845.6875,210.9375)"/>
<path d="M0 0 C0 0.99 0 1.98 0 3 C-2.05430538 4.66541231 -4.0491472 6.11804308 -6.25 7.5625 C-6.83652344 7.96146484 -7.42304688 8.36042969 -8.02734375 8.77148438 C-10.92936058 10.72463952 -13.81691687 12.54240005 -17 14 C-17.45375 13.525625 -17.9075 13.05125 -18.375 12.5625 C-19.93258204 10.90972192 -19.93258204 10.90972192 -22 10 C-19.70912072 8.51960151 -17.41734017 7.04063324 -15.125 5.5625 C-14.47402344 5.14162109 -13.82304687 4.72074219 -13.15234375 4.28710938 C-8.22036939 1.10929084 -5.86958903 -0.12759976 0 0 Z " fill="#4A4A4B" transform="translate(453,112)"/>
<path d="M0 0 C1.21236328 0.01353516 1.21236328 0.01353516 2.44921875 0.02734375 C3.37154297 0.04474609 3.37154297 0.04474609 4.3125 0.0625 C0.86878898 2.08472834 -2.31297725 2.60152994 -6.25 3.125 C-7.38566406 3.28097656 -8.52132812 3.43695313 -9.69140625 3.59765625 C-11.02307614 3.75567972 -12.35514153 3.91039142 -13.6875 4.0625 C-14.4211377 4.15370117 -15.15477539 4.24490234 -15.91064453 4.33886719 C-24.52019062 5.28113883 -33.13385671 5.21364742 -41.78320312 5.19287109 C-44.41802806 5.1875394 -47.05268043 5.19282833 -49.6875 5.19921875 C-78.45882109 5.21475621 -78.45882109 5.21475621 -83.6875 2.0625 C-82.13095703 2.17078125 -82.13095703 2.17078125 -80.54296875 2.28125 C-53.34974526 3.99012206 -26.68068969 -0.38667666 0 0 Z " fill="#E6E7E7" transform="translate(280.6875,292.9375)"/>
<path d="M0 0 C0.66 0 1.32 0 2 0 C2.804375 0.969375 3.60875 1.93875 4.4375 2.9375 C6.70684377 6.19375327 6.70684377 6.19375327 10 7 C10.495 8.485 10.495 8.485 11 10 C10.67 10.66 10.34 11.32 10 12 C-6.17 12 -22.34 12 -39 12 C-39 11.67 -39 11.34 -39 11 C-24.81 10.67 -10.62 10.34 4 10 C3.01 8.35 2.02 6.7 1 5 C0.3125 2.1875 0.3125 2.1875 0 0 Z " fill="#F1F1F0" transform="translate(698,283)"/>
<path d="M0 0 C0.94875 0.00902344 1.8975 0.01804687 2.875 0.02734375 C3.57625 0.03894531 4.2775 0.05054688 5 0.0625 C5 0.7225 5 1.3825 5 2.0625 C4.01 2.0625 3.02 2.0625 2 2.0625 C2 2.7225 2 3.3825 2 4.0625 C-10.21 4.0625 -22.42 4.0625 -35 4.0625 C-34.67 3.4025 -34.34 2.7425 -34 2.0625 C-33.15405273 2.02491577 -33.15405273 2.02491577 -32.29101562 1.98657227 C-29.69385118 1.86931699 -27.0969369 1.74718734 -24.5 1.625 C-23.613125 1.58568359 -22.72625 1.54636719 -21.8125 1.50585938 C-17.75597557 1.31198137 -13.74519285 1.07146442 -9.71875 0.53125 C-6.42296409 0.1158148 -3.31577209 -0.04144715 0 0 Z " fill="#3A3839" transform="translate(259,304.9375)"/>
<path d="M0 0 C0.65484375 0.19335938 1.3096875 0.38671875 1.984375 0.5859375 C8.93498098 2.56902 15.85285768 3.93977819 23 5 C21.02 4.34 19.04 3.68 17 3 C17 2.34 17 1.68 17 1 C18.03125 1.350625 19.0625 1.70125 20.125 2.0625 C23.9798964 2.99513623 26.20172226 2.92640921 30 2 C30.99 3.32 31.98 4.64 33 6 C32.67 6.66 32.34 7.32 32 8 C37.445 8.495 37.445 8.495 43 9 C43 9.33 43 9.66 43 10 C27.9198182 9.28902369 14.40722719 6.80240906 0 2 C0 1.34 0 0.68 0 0 Z " fill="#E4E4E4" transform="translate(233,169)"/>
<path d="M0 0 C-0.99 0.8971875 -0.99 0.8971875 -2 1.8125 C-4.3373846 3.87501834 -4.3373846 3.87501834 -4 7 C-6.26708325 7.8655047 -8.53775079 8.71759315 -10.8125 9.5625 C-11.45509766 9.80935547 -12.09769531 10.05621094 -12.75976562 10.31054688 C-17.66015625 12.11328125 -17.66015625 12.11328125 -21 11 C-20.34 11 -19.68 11 -19 11 C-19.99 9.68 -20.98 8.36 -22 7 C-18.71338904 5.63332132 -15.41999764 4.28381896 -12.125 2.9375 C-11.18785156 2.54755859 -10.25070312 2.15761719 -9.28515625 1.75585938 C-8.38925781 1.39169922 -7.49335937 1.02753906 -6.5703125 0.65234375 C-5.74289551 0.31195068 -4.91547852 -0.02844238 -4.06298828 -0.37915039 C-2 -1 -2 -1 0 0 Z " fill="#575556" transform="translate(919,193)"/>
<path d="M0 0 C-0.99 0.33 -1.98 0.66 -3 1 C-3.33 1.66 -3.66 2.32 -4 3 C-3.34 3.33 -2.68 3.66 -2 4 C-3.99063757 5.99063757 -7.64556687 5.72905384 -10.375 6.0625 C-11.45297852 6.19664307 -11.45297852 6.19664307 -12.55273438 6.33349609 C-18.38376717 7.01621068 -24.12955891 7.22387275 -30 7 C-30 6.67 -30 6.34 -30 6 C-26.7 5.67 -23.4 5.34 -20 5 C-21.32 4.01 -22.64 3.02 -24 2 C-20.75198175 1.46626918 -17.50138509 0.95028732 -14.25 0.4375 C-13.32960938 0.28603516 -12.40921875 0.13457031 -11.4609375 -0.02148438 C-10.12675781 -0.2293457 -10.12675781 -0.2293457 -8.765625 -0.44140625 C-7.94868164 -0.57232666 -7.13173828 -0.70324707 -6.29003906 -0.83813477 C-3.93889793 -1.00431883 -2.23573504 -0.70259545 0 0 Z " fill="#4A494A" transform="translate(873,208)"/>
<path d="M0 0 C-2.97 0.66 -5.94 1.32 -9 2 C-8.04134491 4.33075929 -8.04134491 4.33075929 -5 6 C-11.65556077 7.7637236 -18.13963599 9.34034961 -25 10 C-25.33 8.35 -25.66 6.7 -26 5 C-24.91460937 4.73445313 -23.82921875 4.46890625 -22.7109375 4.1953125 C-21.26559353 3.83866918 -19.82028278 3.4818912 -18.375 3.125 C-17.66214844 2.95097656 -16.94929688 2.77695312 -16.21484375 2.59765625 C-12.97053339 1.79401974 -9.87227521 0.95336064 -6.7265625 -0.1953125 C-4 -1 -4 -1 0 0 Z " fill="#545254" transform="translate(322,293)"/>
<path d="M0 0 C1.81242052 -0.02687279 3.62495233 -0.04633715 5.4375 -0.0625 C6.44683594 -0.07410156 7.45617188 -0.08570313 8.49609375 -0.09765625 C11 0 11 0 12 1 C13.33802186 1.22513101 14.68573023 1.39360807 16.03515625 1.53515625 C17.24848633 1.66567383 17.24848633 1.66567383 18.48632812 1.79882812 C19.33646484 1.88583984 20.18660156 1.97285156 21.0625 2.0625 C21.91650391 2.15337891 22.77050781 2.24425781 23.65039062 2.33789062 C25.76651535 2.56250722 27.88320894 2.78175227 30 3 C30 3.66 30 4.32 30 5 C27.02077407 5.02683987 24.04178705 5.04676037 21.0625 5.0625 C19.78729492 5.07506836 19.78729492 5.07506836 18.48632812 5.08789062 C17.67744141 5.09111328 16.86855469 5.09433594 16.03515625 5.09765625 C15.2862915 5.10289307 14.53742676 5.10812988 13.76586914 5.11352539 C12 5 12 5 11 4 C9.29436222 3.84259395 7.58272756 3.74906608 5.87109375 3.68359375 C4.83662109 3.64169922 3.80214844 3.59980469 2.73632812 3.55664062 C1.64771484 3.51732422 0.55910156 3.47800781 -0.5625 3.4375 C-1.65498047 3.39431641 -2.74746094 3.35113281 -3.87304688 3.30664062 C-6.58189564 3.20017932 -9.29083992 3.09816484 -12 3 C-12 2.67 -12 2.34 -12 2 C-8.04 2 -4.08 2 0 2 C0 1.34 0 0.68 0 0 Z " fill="#C95F60" transform="translate(1259,367)"/>
<path d="M0 0 C1.52242851 0.43191634 3.04285919 0.87087562 4.5625 1.3125 C5.83287109 1.67794922 5.83287109 1.67794922 7.12890625 2.05078125 C10 3 10 3 13.27734375 4.4765625 C17.40000107 6.27878952 21.60132173 7.18285429 26 8.0625 C26.82218018 8.23168945 27.64436035 8.40087891 28.49145508 8.57519531 C35.95459818 10.07142758 43.43821458 11.14096309 51 12 C51 12.66 51 13.32 51 14 C38.65065115 13.53489465 26.51674027 12.51285633 14.953125 7.76171875 C11.05932832 6.24313804 7.01259163 5.15937586 3 4 C3 3.34 3 2.68 3 2 C2.01 1.67 1.02 1.34 0 1 C0 0.67 0 0.34 0 0 Z " fill="#EAEAEA" transform="translate(166,273)"/>
<path d="M0 0 C3.80635497 3.20760251 7.54563567 6.40746109 11 10 C9 12 9 12 6.47802734 12.22705078 C5.4411377 12.21657715 4.40424805 12.20610352 3.3359375 12.1953125 C2.21445312 12.18886719 1.09296875 12.18242187 -0.0625 12.17578125 C-1.238125 12.15902344 -2.41375 12.14226562 -3.625 12.125 C-5.40003906 12.11146484 -5.40003906 12.11146484 -7.2109375 12.09765625 C-10.14082523 12.07402812 -13.0703134 12.04108514 -16 12 C-16 11.67 -16 11.34 -16 11 C-11.5621439 9.88834768 -7.23043614 9.88472237 -2.6875 9.9375 C-1.94693359 9.94201172 -1.20636719 9.94652344 -0.44335938 9.95117188 C1.37112899 9.96287825 3.18557534 9.98081102 5 10 C5 9.34 5 8.68 5 8 C3.02 7.34 1.04 6.68 -1 6 C-0.67 4.02 -0.34 2.04 0 0 Z " fill="#EDEEED" transform="translate(513,283)"/>
<path d="M0 0 C6.41688675 -0.10349817 12.62694402 0.25492456 19 1 C19 1.99 19 2.98 19 4 C10.39421862 4.87019244 1.8960185 5.12607367 -6.75 5.0625 C-7.9359375 5.05798828 -9.121875 5.05347656 -10.34375 5.04882812 C-13.22922228 5.03719316 -16.11458213 5.0208484 -19 5 C-19 4.67 -19 4.34 -19 4 C-9.1 3.505 -9.1 3.505 1 3 C1.33 2.34 1.66 1.68 2 1 C1.34 0.67 0.68 0.34 0 0 Z " fill="#D23B3C" transform="translate(1240,365)"/>
<path d="M0 0 C0.66 0.66 1.32 1.32 2 2 C-1.90577462 6.40974554 -6.39797924 9.98557473 -12 12 C-14.78125 11.6328125 -14.78125 11.6328125 -17 11 C-12.03787476 4.62012469 -7.97652446 2.03323172 0 0 Z " fill="#3D3B3C" transform="translate(931,186)"/>
<path d="M0 0 C7.92 0.33 15.84 0.66 24 1 C24 1.66 24 2.32 24 3 C7.98894142 3.85720604 -7.96723069 4.13183175 -24 4 C-24 3.67 -24 3.34 -24 3 C-16.08 2.67 -8.16 2.34 0 2 C0 1.34 0 0.68 0 0 Z " fill="#616162" transform="translate(805,215)"/>
<path d="M0 0 C0.33 1.32 0.66 2.64 1 4 C3.64 3.01 6.28 2.02 9 1 C9 1.66 9 2.32 9 3 C16.59 3.33 24.18 3.66 32 4 C31.67 4.66 31.34 5.32 31 6 C20.44 6 9.88 6 -1 6 C-1 1 -1 1 0 0 Z " fill="#EBEBEC" transform="translate(742,190)"/>
<path d="M0 0 C6.99132979 -0.2853604 13.67209855 0.68531944 20.58496094 1.67041016 C23.3688039 2.05033211 26.15614307 2.39189138 28.9453125 2.73046875 C29.9758374 2.85768311 31.0063623 2.98489746 32.06811523 3.1159668 C34.12167387 3.36878418 36.17587063 3.61647946 38.23071289 3.85864258 C39.17938232 3.97747803 40.12805176 4.09631348 41.10546875 4.21875 C41.95262451 4.32123047 42.79978027 4.42371094 43.67260742 4.52929688 C46.06798151 5.01374891 47.87734183 5.80820345 50 7 C46.70542827 8.06276508 44.83896031 7.96154803 41.43359375 7.1484375 C36.81419543 6.06488071 32.20986014 5.50233414 27.5 5 C26.73364731 4.91769135 25.96729462 4.83538269 25.17771912 4.75057983 C21.96411772 4.40955611 18.74982458 4.07603688 15.53466797 3.75 C13.16802575 3.50799464 10.80280185 3.25472481 8.4375 3 C7.7053125 2.92910156 6.973125 2.85820312 6.21875 2.78515625 C4.47002367 2.59383686 2.73232844 2.30608012 1 2 C0.67 1.34 0.34 0.68 0 0 Z " fill="#EDEFEE" transform="translate(219,205)"/>
<path d="M0 0 C0 0.99 0 1.98 0 3 C-8.39004715 3.13605482 -16.64380043 2.75475351 -25 2 C-25 1.34 -25 0.68 -25 0 C-17.3606453 -4.29713702 -8.17263492 -1.54879037 0 0 Z " fill="#545353" transform="translate(856,132)"/>
<path d="M0 0 C4.29 0.99 8.58 1.98 13 3 C12.01 4.32 11.02 5.64 10 7 C12.97 7.33 15.94 7.66 19 8 C19 8.33 19 8.66 19 9 C13.36375658 9.23952163 8.51426608 8.38279585 3.0625 7 C2.28326172 6.80921875 1.50402344 6.6184375 0.70117188 6.421875 C-1.20099248 5.9550862 -3.10076009 5.47854864 -5 5 C-3.68 4.67 -2.36 4.34 -1 4 C-0.67 2.68 -0.34 1.36 0 0 Z " fill="#4C4A4B" transform="translate(188,207)"/>
<path d="M0 0 C5.39399122 0.37632497 7.46951619 1.99242379 11 6 C11.598125 6.53625 12.19625 7.0725 12.8125 7.625 C14 9 14 9 14 12 C10.6367719 11.35352137 8.18828586 10.09430564 5.3125 8.25 C4.52488281 7.76015625 3.73726563 7.2703125 2.92578125 6.765625 C0.56286704 4.59922089 0.31446608 3.13400089 0 0 Z " fill="#D5D5D4" transform="translate(347,130)"/>
<path d="M0 0 C0.66 0.33 1.32 0.66 2 1 C1.67 1.99 1.34 2.98 1 4 C1.99 4.33 2.98 4.66 4 5 C2.75539217 5.67667998 1.50403104 6.34094719 0.25 7 C-0.44609375 7.37125 -1.1421875 7.7425 -1.859375 8.125 C-4 9 -4 9 -8 9 C-8 8.34 -8 7.68 -8 7 C-9.32 6.34 -10.64 5.68 -12 5 C-10.56328432 4.35242375 -9.12559584 3.70700547 -7.6875 3.0625 C-6.88699219 2.70285156 -6.08648437 2.34320313 -5.26171875 1.97265625 C-3 1 -3 1 0 0 Z " fill="#4A4849" transform="translate(347,282)"/>
<path d="M0 0 C2.5 1.0625 2.5 1.0625 4 2 C3.67 3.32 3.34 4.64 3 6 C1.5199159 5.88637738 0.04089926 5.75877092 -1.4375 5.625 C-2.26121094 5.55539063 -3.08492187 5.48578125 -3.93359375 5.4140625 C-4.61550781 5.27742187 -5.29742187 5.14078125 -6 5 C-6.33 4.34 -6.66 3.68 -7 3 C-7.99 2.67 -8.98 2.34 -10 2 C-10 1.34 -10 0.68 -10 0 C-6.76708301 -1.61645849 -3.43029955 -0.67792481 0 0 Z " fill="#413E3E" transform="translate(184,205)"/>
<path d="M0 0 C0 0.66 0 1.32 0 2 C-4.93387858 4.25861997 -9.80355921 6.40109514 -15 8 C-14.34 6.68 -13.68 5.36 -13 4 C-15.31 4.33 -17.62 4.66 -20 5 C-13.41695759 0.61130506 -7.74236877 -0.48389805 0 0 Z " fill="#656464" transform="translate(636,112)"/>
<path d="M0 0 C4.29 0.33 8.58 0.66 13 1 C13 1.66 13 2.32 13 3 C15.31 3 17.62 3 20 3 C19.67 3.66 19.34 4.32 19 5 C12.73 5 6.46 5 0 5 C0.99 4.67 1.98 4.34 3 4 C3 3.34 3 2.68 3 2 C2.01 1.34 1.02 0.68 0 0 Z " fill="#525151" transform="translate(150,298)"/>
<path d="M0 0 C0.80566406 0.00322266 1.61132812 0.00644531 2.44140625 0.00976562 C3.70404297 0.02233398 3.70404297 0.02233398 4.9921875 0.03515625 C5.84167969 0.03966797 6.69117187 0.04417969 7.56640625 0.04882812 C9.66669659 0.06062751 11.7669508 0.07856319 13.8671875 0.09765625 C14.1971875 1.08765625 14.5271875 2.07765625 14.8671875 3.09765625 C7.9371875 3.09765625 1.0071875 3.09765625 -6.1328125 3.09765625 C-6.1328125 2.43765625 -6.1328125 1.77765625 -6.1328125 1.09765625 C-3.8362755 -0.05061225 -2.54968083 -0.0179555 0 0 Z " fill="#403F3F" transform="translate(101.1328125,293.90234375)"/>
<path d="M0 0 C13.04119828 -0.10531468 26.00156173 -0.16652651 39 1 C39 1.33 39 1.66 39 2 C29.32718919 3.4069543 20.14866754 2.95119311 10.4375 2 C9.42880859 1.90460938 8.42011719 1.80921875 7.38085938 1.7109375 C4.92019019 1.47769871 2.4599534 1.24065109 0 1 C0 0.67 0 0.34 0 0 Z " fill="#E26F71" transform="translate(761,321)"/>
<path d="M0 0 C-1.0653722 3.08957939 -2.0376641 4.0251094 -4.8125 5.875 C-8 7 -8 7 -10.625 6.25 C-11.40875 5.8375 -12.1925 5.425 -13 5 C-14.32715851 4.64287371 -15.6599749 4.30532217 -17 4 C-11.29350287 1.73707872 -6.21539617 0 0 0 Z " fill="#535353" transform="translate(623,116)"/>
<path d="M0 0 C-2 3 -2 3 -3.953125 3.73046875 C-8.37257226 4.60984856 -12.46537479 5.23254488 -17 5 C-16.3125 3.0625 -16.3125 3.0625 -15 1 C-10.36379481 -0.73857695 -4.89389339 -0.08552435 0 0 Z " fill="#9A9B9A" transform="translate(628,217)"/>
<path d="M0 0 C5.28 0.33 10.56 0.66 16 1 C16 1.33 16 1.66 16 2 C13.69 2 11.38 2 9 2 C9 2.66 9 3.32 9 4 C11.97 4.495 11.97 4.495 15 5 C15 5.33 15 5.66 15 6 C7.83437211 6.28100502 1.05453001 5.20443195 -6 4 C-6 3.67 -6 3.34 -6 3 C-0.06 2.505 -0.06 2.505 6 2 C3.03 1.505 3.03 1.505 0 1 C0 0.67 0 0.34 0 0 Z " fill="#6A6969" transform="translate(163,300)"/>
<path d="M0 0 C2.97 0 5.94 0 9 0 C9 0.66 9 1.32 9 2 C10.98 2 12.96 2 15 2 C13.02 2.99 13.02 2.99 11 4 C11.99 4.66 12.98 5.32 14 6 C12.02 6 10.04 6 8 6 C8 5.34 8 4.68 8 4 C5.03 3.67 2.06 3.34 -1 3 C-0.67 2.01 -0.34 1.02 0 0 Z " fill="#3F3E3E" transform="translate(199,211)"/>
<path d="M0 0 C6.93 3.96 6.93 3.96 14 8 C14 8.33 14 8.66 14 9 C7.38914524 8.51030705 2.05022986 6.66557258 -4 4 C-3.34 3.67 -2.68 3.34 -2 3 C-1.01 3.33 -0.02 3.66 1 4 C0.67 2.68 0.34 1.36 0 0 Z " fill="#626262" transform="translate(248,164)"/>
<path d="M0 0 C0.66 1.32 1.32 2.64 2 4 C-1.49359465 7.59634744 -5.11098131 10.83451967 -9 14 C-8.835 13.401875 -8.67 12.80375 -8.5 12.1875 C-7.8885876 9.88655664 -7.8885876 9.88655664 -8 7 C-7.01 7.33 -6.02 7.66 -5 8 C-4.9175 7.4225 -4.835 6.845 -4.75 6.25 C-3.79468987 3.3840696 -2.21530827 2.0009236 0 0 Z " fill="#F8F7F1" transform="translate(809,611)"/>
<path d="M0 0 C4.23582327 -0.04938628 8.47149465 -0.08571263 12.70751953 -0.10986328 C14.14895547 -0.11992963 15.59037095 -0.1335838 17.03173828 -0.15087891 C19.10193934 -0.17510012 21.17187076 -0.18647641 23.2421875 -0.1953125 C25.11173096 -0.21102295 25.11173096 -0.21102295 27.01904297 -0.22705078 C30 0 30 0 32 2 C31 3 31 3 27.625 3.125 C24 3 24 3 21 2 C19.37432921 1.85284801 17.74413143 1.75278133 16.11328125 1.68359375 C15.17548828 1.64169922 14.23769531 1.59980469 13.27148438 1.55664062 C12.29501953 1.51732422 11.31855469 1.47800781 10.3125 1.4375 C9.32443359 1.39431641 8.33636719 1.35113281 7.31835938 1.30664062 C4.87904454 1.20058346 2.43962887 1.09852286 0 1 C0 0.67 0 0.34 0 0 Z " fill="#343434" transform="translate(295,123)"/>
<path d="M0 0 C0.66 0 1.32 0 2 0 C2.804375 0.969375 3.60875 1.93875 4.4375 2.9375 C6.70684377 6.19375327 6.70684377 6.19375327 10 7 C10.33 7.99 10.66 8.98 11 10 C10.67 10.66 10.34 11.32 10 12 C7.69 12 5.38 12 3 12 C4.32 11.34 5.64 10.68 7 10 C6.21625 9.649375 5.4325 9.29875 4.625 8.9375 C1.16452728 6.38334156 0.85463256 4.11777506 0 0 Z " fill="#CCCCCC" transform="translate(698,283)"/>
<path d="M0 0 C3.80635497 3.20760251 7.54563567 6.40746109 11 10 C10.01 10.495 10.01 10.495 9 11 C6.6171875 10.00390625 6.6171875 10.00390625 3.875 8.5625 C2.96492187 8.08941406 2.05484375 7.61632812 1.1171875 7.12890625 C0.41851563 6.75636719 -0.28015625 6.38382812 -1 6 C-0.67 4.02 -0.34 2.04 0 0 Z " fill="#D7D7D7" transform="translate(513,283)"/>
<path d="M0 0 C0 0.99 0 1.98 0 3 C-2.08185451 3.22262606 -4.16560426 3.42757926 -6.25 3.625 C-7.41015625 3.74101562 -8.5703125 3.85703125 -9.765625 3.9765625 C-12.93872091 3.99955595 -14.38317244 3.69705154 -17 2 C-11.16200408 0.30167391 -6.06892629 -0.25287193 0 0 Z " fill="#333132" transform="translate(853,211)"/>
<path d="M0 0 C10.38324014 -0.14809693 20.64523146 0.29798179 31 1 C31 1.33 31 1.66 31 2 C22.42 2 13.84 2 5 2 C4.67 2.66 4.34 3.32 4 4 C2.68 2.68 1.36 1.36 0 0 Z " fill="#F2F3F3" transform="translate(683,106)"/>
<path d="M0 0 C2.64 0.33 5.28 0.66 8 1 C7.01 1.33 6.02 1.66 5 2 C5 2.66 5 3.32 5 4 C5.66 4 6.32 4 7 4 C7.33 4.99 7.66 5.98 8 7 C-0.415 5.515 -0.415 5.515 -9 4 C-9 3.67 -9 3.34 -9 3 C-6.03 3 -3.06 3 0 3 C0 2.01 0 1.02 0 0 Z " fill="#5A5A5A" transform="translate(301,226)"/>
<path d="M0 0 C1.98 0 3.96 0 6 0 C6 0.66 6 1.32 6 2 C3.068542 3.20282097 0.12902758 4.38454273 -2.8125 5.5625 C-3.64587891 5.90474609 -4.47925781 6.24699219 -5.33789062 6.59960938 C-6.54155273 7.07817383 -6.54155273 7.07817383 -7.76953125 7.56640625 C-8.50792236 7.86490479 -9.24631348 8.16340332 -10.00708008 8.47094727 C-12 9 -12 9 -15 8 C-10.03715966 5.62886517 -5.54050113 3.56825653 0 3 C0 2.01 0 1.02 0 0 Z " fill="#E4E5E5" transform="translate(619,106)"/>
<path d="M0 0 C1.98 0 3.96 0 6 0 C5.67 1.65 5.34 3.3 5 5 C1.7 5 -1.6 5 -5 5 C-5 4.01 -5 3.02 -5 2 C-3.35 2 -1.7 2 0 2 C0 1.34 0 0.68 0 0 Z " fill="#3F3C3E" transform="translate(292,299)"/>
<path d="M0 0 C0.99 0.33 1.98 0.66 3 1 C3 1.99 3 2.98 3 4 C-0.85756507 6.15305957 -3.55129785 7.39253254 -8 7 C-7.67 5.68 -7.34 4.36 -7 3 C-3.535 2.505 -3.535 2.505 0 2 C0 1.34 0 0.68 0 0 Z " fill="#3C3A3B" transform="translate(356,279)"/>
<path d="M0 0 C4.29 0 8.58 0 13 0 C13 0.66 13 1.32 13 2 C10.23547967 3.38226016 7.9538637 3.09525387 4.875 3.0625 C3.77929688 3.05347656 2.68359375 3.04445313 1.5546875 3.03515625 C0.29011719 3.01775391 0.29011719 3.01775391 -1 3 C-0.67 2.01 -0.34 1.02 0 0 Z " fill="#363435" transform="translate(200,305)"/>
<path d="M0 0 C0.98226562 0.27263672 0.98226562 0.27263672 1.984375 0.55078125 C8.96448954 2.47327042 15.9698181 4.27005995 23 6 C22.67 6.66 22.34 7.32 22 8 C19.26964299 7.37987481 16.54079236 6.75409113 13.8125 6.125 C12.65911133 5.86396484 12.65911133 5.86396484 11.48242188 5.59765625 C7.49938746 4.67454956 3.75211617 3.66927814 0 2 C0 1.34 0 0.68 0 0 Z " fill="#EDEEED" transform="translate(233,169)"/>
<path d="M0 0 C1.37478516 0.01740234 1.37478516 0.01740234 2.77734375 0.03515625 C3.69644531 0.04417969 4.61554688 0.05320312 5.5625 0.0625 C6.27277344 0.07410156 6.98304688 0.08570312 7.71484375 0.09765625 C7.71484375 0.42765625 7.71484375 0.75765625 7.71484375 1.09765625 C5.73484375 1.09765625 3.75484375 1.09765625 1.71484375 1.09765625 C1.71484375 2.08765625 1.71484375 3.07765625 1.71484375 4.09765625 C3.03484375 4.42765625 4.35484375 4.75765625 5.71484375 5.09765625 C-1.71372768 7.52622768 -1.71372768 7.52622768 -5.28515625 6.09765625 C-4.29515625 6.09765625 -3.30515625 6.09765625 -2.28515625 6.09765625 C-2.56359375 4.89109375 -2.56359375 4.89109375 -2.84765625 3.66015625 C-2.99203125 2.81453125 -3.13640625 1.96890625 -3.28515625 1.09765625 C-2.28515625 0.09765625 -2.28515625 0.09765625 0 0 Z " fill="#767677" transform="translate(283.28515625,121.90234375)"/>
<path d="M0 0 C2.64 0 5.28 0 8 0 C8.33 1.65 8.66 3.3 9 5 C5.37 4.67 1.74 4.34 -2 4 C-1.34 2.68 -0.68 1.36 0 0 Z " fill="#3C3B3B" transform="translate(293,225)"/>
<path d="M0 0 C0.33 1.32 0.66 2.64 1 4 C3.64 3.01 6.28 2.02 9 1 C9.66 2.65 10.32 4.3 11 6 C7.04 6 3.08 6 -1 6 C-1 1 -1 1 0 0 Z " fill="#AFAFAF" transform="translate(742,190)"/>
<path d="M0 0 C-0.33 1.32 -0.66 2.64 -1 4 C-3.31 4.66 -5.62 5.32 -8 6 C-8.66 4.68 -9.32 3.36 -10 2 C-6.3558226 -0.4294516 -4.28758728 -0.16179575 0 0 Z " fill="#434344" transform="translate(282,124)"/>
<path d="M0 0 C1.32 0 2.64 0 4 0 C4 0.66 4 1.32 4 2 C11.92 1.505 11.92 1.505 20 1 C20 1.66 20 2.32 20 3 C13.07 3 6.14 3 -1 3 C-0.67 2.01 -0.34 1.02 0 0 Z " fill="#F1F1F1" transform="translate(581,292)"/>
<path d="M0 0 C0 0.33 0 0.66 0 1 C-1.98 1 -3.96 1 -6 1 C-6.66 2.32 -7.32 3.64 -8 5 C-10.97 4.505 -10.97 4.505 -14 4 C-14 3.01 -14 2.02 -14 1 C-9.27685687 0.22887459 -4.78478822 -0.09764874 0 0 Z " fill="#DC6566" transform="translate(115,360)"/>
<path d="M0 0 C7.42686315 -0.10331031 14.63512596 0.00137301 22 1 C22 1.33 22 1.66 22 2 C14.66666667 2 7.33333333 2 0 2 C0 1.34 0 0.68 0 0 Z " fill="#EDEEEE" transform="translate(495,106)"/>
<path d="M0 0 C0 0.66 0 1.32 0 2 C-7.92 2.495 -7.92 2.495 -16 3 C-16 2.34 -16 1.68 -16 1 C-10.61509359 0.08342019 -5.45769811 -0.11138159 0 0 Z " fill="#DA545A" transform="translate(685,406)"/>
<path d="M0 0 C1.43655854 -0.08131463 2.8744483 -0.13933559 4.3125 -0.1875 C5.51326172 -0.23970703 5.51326172 -0.23970703 6.73828125 -0.29296875 C9 0 9 0 12 3 C7.71 3 3.42 3 -1 3 C-0.67 2.01 -0.34 1.02 0 0 Z " fill="#322F31" transform="translate(123,295)"/>
<path d="M0 0 C1.32 0 2.64 0 4 0 C4 0.99 4 1.98 4 3 C-4.39004715 3.13605482 -12.64380043 2.75475351 -21 2 C-21 1.67 -21 1.34 -21 1 C-14.07 1 -7.14 1 0 1 C0 0.67 0 0.34 0 0 Z " fill="#8D8D8C" transform="translate(852,132)"/>
<path d="M0 0 C4.40114397 0.50298788 6.71195019 2.08772731 10 5 C9.01 5.99 8.02 6.98 7 8 C5.83035398 6.8572081 4.66435444 5.71068285 3.5 4.5625 C2.8503125 3.92441406 2.200625 3.28632813 1.53125 2.62890625 C0 1 0 1 0 0 Z " fill="#5E5B5B" transform="translate(391,202)"/>
<path d="M0 0 C0 0.33 0 0.66 0 1 C-0.99902344 1.13277344 -1.99804688 1.26554687 -3.02734375 1.40234375 C-4.31769531 1.57894531 -5.60804688 1.75554687 -6.9375 1.9375 C-8.22527344 2.11152344 -9.51304687 2.28554688 -10.83984375 2.46484375 C-13.85466313 2.66162423 -13.85466313 2.66162423 -15 4 C-16.99958364 4.04080783 -19.00045254 4.04254356 -21 4 C-14.23124259 -0.51250494 -7.88231789 -0.22958207 0 0 Z " fill="#DD5A5F" transform="translate(602,420)"/>
<path d="M0 0 C-3.65501905 2.21175512 -7.46315806 2.70784434 -11.625 3.25 C-12.305625 3.353125 -12.98625 3.45625 -13.6875 3.5625 C-15.44849747 3.79915579 -17.22552556 3.90857509 -19 4 C-19.66 3.34 -20.32 2.68 -21 2 C-13.90294338 0.65504172 -7.2274605 -0.24091535 0 0 Z " fill="#EFEFEF" transform="translate(285,293)"/>
<path d="M0 0 C0.68707031 0.34933594 1.37414062 0.69867188 2.08203125 1.05859375 C2.98308594 1.51363281 3.88414062 1.96867187 4.8125 2.4375 C6.15248047 3.11619141 6.15248047 3.11619141 7.51953125 3.80859375 C10.03999478 5.0831605 10.03999478 5.0831605 13 6 C13 6.66 13 7.32 13 8 C10.03 7.67 7.06 7.34 4 7 C4.33 6.01 4.66 5.02 5 4 C2.525 3.01 2.525 3.01 0 2 C0 1.34 0 0.68 0 0 Z " fill="#7A7A79" transform="translate(186,271)"/>
<path d="M0 0 C-0.99 0.33 -1.98 0.66 -3 1 C-3.33 1.66 -3.66 2.32 -4 3 C-3.34 3.33 -2.68 3.66 -2 4 C-3 5 -3 5 -6.0625 5.0625 C-7.031875 5.041875 -8.00125 5.02125 -9 5 C-8.67 4.01 -8.34 3.02 -8 2 C-8.99 1.34 -9.98 0.68 -11 0 C-3.57142857 -1.28571429 -3.57142857 -1.28571429 0 0 Z " fill="#5C5C5C" transform="translate(873,208)"/>
<path d="M0 0 C0.66 0.66 1.32 1.32 2 2 C-0.25 4.5625 -0.25 4.5625 -3 7 C-5.3125 6.8125 -5.3125 6.8125 -7 6 C-5.9024777 3.00675737 -5.32317108 2.15389099 -2.375 0.75 C-1.59125 0.5025 -0.8075 0.255 0 0 Z " fill="#363536" transform="translate(931,186)"/>
<path d="M0 0 C3.96 0.33 7.92 0.66 12 1 C11.67 1.66 11.34 2.32 11 3 C7.04 3 3.08 3 -1 3 C-0.67 2.01 -0.34 1.02 0 0 Z " fill="#363434" transform="translate(158,300)"/>
<path d="M0 0 C0.33 0.99 0.66 1.98 1 3 C-3.30769231 6.07692308 -3.30769231 6.07692308 -6.8125 5.6875 C-7.534375 5.460625 -8.25625 5.23375 -9 5 C-9 4.34 -9 3.68 -9 3 C-6.03 2.01 -3.06 1.02 0 0 Z " fill="#3D3B3D" transform="translate(322,292)"/>
<path d="M0 0 C3.71599191 -0.20086443 4.77208445 -0.1519437 8 2 C8 2.66 8 3.32 8 4 C3.38 4 -1.24 4 -6 4 C-6 3.67 -6 3.34 -6 3 C-2.535 2.505 -2.535 2.505 1 2 C0.67 1.34 0.34 0.68 0 0 Z " fill="#8A8C8B" transform="translate(325,123)"/>
<path d="M0 0 C1.32 0.33 2.64 0.66 4 1 C3.67 1.66 3.34 2.32 3 3 C3.99 3 4.98 3 6 3 C6 3.66 6 4.32 6 5 C2.7 5.66 -0.6 6.32 -4 7 C-3.01 6.01 -2.02 5.02 -1 4 C-0.34 4 0.32 4 1 4 C0.67 2.68 0.34 1.36 0 0 Z " fill="#525052" transform="translate(322,291)"/>
<path d="M0 0 C1.8125 1.4375 1.8125 1.4375 3 3 C-1.75 6 -1.75 6 -4 6 C-4.33 4.35 -4.66 2.7 -5 1 C-2.6875 0.3125 -2.6875 0.3125 0 0 Z " fill="#404041" transform="translate(610,120)"/>
<path d="M0 0 C3.375 0.3125 3.375 0.3125 7 1 C7.66 1.99 8.32 2.98 9 4 C6.36 4.33 3.72 4.66 1 5 C0.67 3.35 0.34 1.7 0 0 Z " fill="#4A474A" transform="translate(296,298)"/>
<path d="M0 0 C4.77609498 1.64178265 8.79382904 4.26546702 13 7 C12.67 7.66 12.34 8.32 12 9 C10.02 8.01 8.04 7.02 6 6 C6 5.34 6 4.68 6 4 C4.68 4 3.36 4 2 4 C2 3.34 2 2.68 2 2 C1.34 2 0.68 2 0 2 C0 1.34 0 0.68 0 0 Z " fill="#ECECEB" transform="translate(687,281)"/>
<path d="M0 0 C3.23490776 0.55774272 4.97855006 1.37211508 7 4 C7 4.99 7 5.98 7 7 C4.20171644 6.61402985 3.1794116 6.19863427 1.25 4.0625 C0 2 0 2 0 0 Z " fill="#BBBBBB" transform="translate(354,135)"/>
<path d="M0 0 C1.21236328 0.01353516 1.21236328 0.01353516 2.44921875 0.02734375 C3.37154297 0.04474609 3.37154297 0.04474609 4.3125 0.0625 C4.3125 0.7225 4.3125 1.3825 4.3125 2.0625 C1.3125 4.0625 1.3125 4.0625 -1.6875 4.0625 C-1.6875 3.0725 -1.6875 2.0825 -1.6875 1.0625 C-3.9975 1.7225 -6.3075 2.3825 -8.6875 3.0625 C-6.88341097 -0.54567807 -3.60175697 -0.05219938 0 0 Z " fill="#929292" transform="translate(631.6875,111.9375)"/>
<path d="M0 0 C2.31 0 4.62 0 7 0 C6.67 0.99 6.34 1.98 6 3 C7.32 3.33 8.64 3.66 10 4 C6.37 3.67 2.74 3.34 -1 3 C-0.67 2.01 -0.34 1.02 0 0 Z " fill="#C2C1C0" transform="translate(87,295)"/>
<path d="M0 0 C3.3 0 6.6 0 10 0 C8 3 8 3 5.8359375 3.51171875 C4.61777344 3.59873047 4.61777344 3.59873047 3.375 3.6875 C2.55773437 3.75324219 1.74046875 3.81898438 0.8984375 3.88671875 C0.27195312 3.92410156 -0.35453125 3.96148437 -1 4 C-0.01 3.34 0.98 2.68 2 2 C1.34 1.34 0.68 0.68 0 0 Z " fill="#C4C6C5" transform="translate(618,217)"/>
<path d="M0 0 C3.25 -0.375 3.25 -0.375 6 0 C6 0.33 6 0.66 6 1 C4.35 1.33 2.7 1.66 1 2 C1.66 3.32 2.32 4.64 3 6 C0.69 6 -1.62 6 -4 6 C-2.375 3 -2.375 3 0 0 Z " fill="#636163" transform="translate(286,300)"/>
<path d="M0 0 C3.48539917 0.64544429 6.02819057 2.10134397 9 4 C7.02 4.99 7.02 4.99 5 6 C3.2925002 4.71937515 1.62626404 3.38232443 0 2 C0 1.34 0 0.68 0 0 Z " fill="#565555" transform="translate(943,122)"/>
<path d="M0 0 C0.66 0 1.32 0 2 0 C2.66 2.31 3.32 4.62 4 7 C3.01 6.67 2.02 6.34 1 6 C0.01 6.33 -0.98 6.66 -2 7 C-1.34 4.69 -0.68 2.38 0 0 Z " fill="#A0A0A1" transform="translate(1287,688)"/>
<path d="M0 0 C7.42857143 -0.28571429 7.42857143 -0.28571429 11 2 C10.67 2.66 10.34 3.32 10 4 C8.51882199 3.71872579 7.04006751 3.42466268 5.5625 3.125 C4.73878906 2.96257812 3.91507813 2.80015625 3.06640625 2.6328125 C2.38449219 2.42398437 1.70257813 2.21515625 1 2 C0.67 1.34 0.34 0.68 0 0 Z " fill="#393838" transform="translate(143,298)"/>
<path d="M0 0 C2.31 0 4.62 0 7 0 C7 0.33 7 0.66 7 1 C5.35 1.33 3.7 1.66 2 2 C3.98 2.66 5.96 3.32 8 4 C8 4.33 8 4.66 8 5 C5.69 5 3.38 5 1 5 C0.67 3.35 0.34 1.7 0 0 Z " fill="#5D5C5C" transform="translate(142,297)"/>
<path d="M0 0 C2.97 0 5.94 0 9 0 C9 0.66 9 1.32 9 2 C4.545 2.495 4.545 2.495 0 3 C0 2.01 0 1.02 0 0 Z " fill="#343333" transform="translate(285,123)"/>
<path d="M0 0 C1.5 1.25 1.5 1.25 3 3 C3 4.32 3 5.64 3 7 C-0.79588866 6.45773019 -2.47211993 4.79872437 -5 2 C-3.02 2.66 -1.04 3.32 1 4 C0.67 2.68 0.34 1.36 0 0 Z " fill="#7F7E7E" transform="translate(326,236)"/>
<path d="M0 0 C1.65 0.33 3.3 0.66 5 1 C3.68 2.32 2.36 3.64 1 5 C1.99 5.33 2.98 5.66 4 6 C1.03 5.67 -1.94 5.34 -5 5 C-3.68 4.67 -2.36 4.34 -1 4 C-0.67 2.68 -0.34 1.36 0 0 Z " fill="#605E5F" transform="translate(188,207)"/>
<path d="M0 0 C0.66 0.33 1.32 0.66 2 1 C-0.97 3.97 -3.94 6.94 -7 10 C-7 7 -7 7 -4.625 4.4375 C-3.75875 3.633125 -2.8925 2.82875 -2 2 C-1.34 1.34 -0.68 0.68 0 0 Z " fill="#DFDFDF" transform="translate(252,139)"/>
<path d="M0 0 C-0.33 0.66 -0.66 1.32 -1 2 C-3.06640625 2.6328125 -3.06640625 2.6328125 -5.5625 3.125 C-6.80193359 3.37636719 -6.80193359 3.37636719 -8.06640625 3.6328125 C-8.70449219 3.75398438 -9.34257812 3.87515625 -10 4 C-10.33 3.34 -10.66 2.68 -11 2 C-7.17679443 0.57741188 -4.08718695 -0.24042276 0 0 Z " fill="#DE4A4E" transform="translate(399,469)"/>
<path d="M0 0 C0 0.66 0 1.32 0 2 C-3.3 2 -6.6 2 -10 2 C-10 1.34 -10 0.68 -10 0 C-6.33694766 -0.74926071 -3.57644848 -1.2380014 0 0 Z " fill="#E5E4E3" transform="translate(522,293)"/>
<path d="M0 0 C2.97 0.495 2.97 0.495 6 1 C6 1.66 6 2.32 6 3 C2.04 3 -1.92 3 -6 3 C-6 2.67 -6 2.34 -6 2 C-4.02 2 -2.04 2 0 2 C0 1.34 0 0.68 0 0 Z " fill="#C0C1BF" transform="translate(333,125)"/>
<path d="M0 0 C1.70884005 1.62339805 3.37446717 3.29319053 5 5 C5 5.66 5 6.32 5 7 C1.34683329 5.75023244 0.21934164 5.32901247 -2 2 C-1.34 2 -0.68 2 0 2 C0 1.34 0 0.68 0 0 Z " fill="#DD7271" transform="translate(167,723)"/>
<path d="M0 0 C3.37503669 1.1858237 5.64722731 2.27573689 8 5 C5.36 4.67 2.72 4.34 0 4 C0 2.68 0 1.36 0 0 Z " fill="#7C7D7C" transform="translate(254,168)"/>
<path d="M0 0 C1.65 0.33 3.3 0.66 5 1 C4.67 1.66 4.34 2.32 4 3 C0.37 3 -3.26 3 -7 3 C-7 2.67 -7 2.34 -7 2 C-4.69 2 -2.38 2 0 2 C0 1.34 0 0.68 0 0 Z " fill="#DCDCDB" transform="translate(856,133)"/>
<path d="M0 0 C0.66 0.33 1.32 0.66 2 1 C-0.35277269 3.72426311 -2.62496331 4.8141763 -6 6 C-6.66 5.34 -7.32 4.68 -8 4 C-6.71349294 3.30289269 -5.42059335 2.61757124 -4.125 1.9375 C-3.40570313 1.55464844 -2.68640625 1.17179687 -1.9453125 0.77734375 C-1.30335938 0.52082031 -0.66140625 0.26429688 0 0 Z " fill="#565456" transform="translate(357,277)"/>
<path d="M0 0 C1.65 0.33 3.3 0.66 5 1 C5 1.66 5 2.32 5 3 C1.25 4.125 1.25 4.125 -1 3 C-0.67 2.01 -0.34 1.02 0 0 Z " fill="#3C3A3C" transform="translate(895,201)"/>
<path d="M0 0 C1.65 0.33 3.3 0.66 5 1 C4.01 1.33 3.02 1.66 2 2 C2.33 3.32 2.66 4.64 3 6 C1.68 5.34 0.36 4.68 -1 4 C-0.67 2.68 -0.34 1.36 0 0 Z " fill="#CBCBCB" transform="translate(352,133)"/>
<path d="M0 0 C0.66 0.33 1.32 0.66 2 1 C-0.31 3.31 -2.62 5.62 -5 8 C-5 5 -5 5 -2.5 2.3125 C-1.675 1.549375 -0.85 0.78625 0 0 Z " fill="#E1E1E2" transform="translate(601,128)"/>
<path d="M0 0 C-1.15173355 2.46800047 -2.04783565 4.04783565 -4 6 C-4.99 5.67 -5.98 5.34 -7 5 C-2.25 0 -2.25 0 0 0 Z " fill="#E75353" transform="translate(66,518)"/>
<path d="M0 0 C0.33 0.66 0.66 1.32 1 2 C2.64363134 2.72159424 4.31050386 3.39351421 6 4 C6 4.66 6 5.32 6 6 C2.73045798 5.43628586 1.17424117 4.50037734 -1 2 C-0.67 1.34 -0.34 0.68 0 0 Z " fill="#464545" transform="translate(185,271)"/>
<path d="M0 0 C-0.185625 0.61875 -0.37125 1.2375 -0.5625 1.875 C-1.23686176 4.04160178 -1.23686176 4.04160178 0 6 C-0.99 6.33 -1.98 6.66 -3 7 C-3 5.68 -3 4.36 -3 3 C-3.66 2.67 -4.32 2.34 -5 2 C-2 0 -2 0 0 0 Z " fill="#555354" transform="translate(926,188)"/>
</svg>
